<?xml version="1.0" standalone="no"?>
<!DOCTYPE svg PUBLIC "-//W3C//DTD SVG 1.1//EN" "http://www.w3.org/Graphics/SVG/1.1/DTD/svg11.dtd" >
<svg xmlns="http://www.w3.org/2000/svg">
<metadata></metadata>
<defs>
<font id="bookman_old_stylBkmanoldstyle" horiz-adv-x="1270" >
<font-face units-per-em="2048" ascent="1638" descent="-410" />
<missing-glyph horiz-adv-x="500" />
<glyph horiz-adv-x="0" />
<glyph unicode="&#xd;" horiz-adv-x="682" />
<glyph unicode="!" horiz-adv-x="614" d="M182 108q0 52 36.5 88.5t88.5 36.5q53 0 89.5 -36.5t36.5 -88.5t-37 -88.5t-89 -36.5q-51 0 -88 36.5t-37 88.5zM184 1277q0 73 32 107.5t94 34.5q54 0 87.5 -33t33.5 -89q0 -18 -5 -60l-80 -902h-82l-76 894q-4 38 -4 48z" />
<glyph unicode="&#x22;" horiz-adv-x="778" d="M150 1310q0 56 21.5 82.5t57.5 26.5q33 0 53.5 -24t20.5 -71q0 -27 -7 -66l-54 -353h-41l-48 350q-3 26 -3 55zM475 1309q0 57 21.5 83.5t57.5 26.5q34 0 54 -24t20 -69q0 -28 -6 -68l-55 -353h-41l-47 350q-4 26 -4 54z" />
<glyph unicode="#" horiz-adv-x="1229" d="M115 442v117h236l37 271h-217v116h239l62 417h115l-61 -417h272l61 417h118l-61 -417h196v-117h-213l-40 -270h202v-117h-219l-65 -443h-119l65 443h-273l-62 -443h-122l67 443h-218zM468 559h271l42 270h-273z" />
<glyph unicode="$" d="M85 509l90 19q63 -140 116.5 -212t123 -122.5t165.5 -83.5v549q-28 10 -100 33q-94 31 -123 45q-74 35 -131.5 88t-82.5 106.5t-25 114.5q0 92 53 171.5t160 128t249 49.5v225h96v-237q70 -9 122.5 -32t107.5 -69l44 88h70l103 -405l-90 -31q-53 118 -108 190 t-111.5 110.5t-137.5 58.5v-487q28 -10 132 -46q117 -41 138 -51q62 -30 116 -80.5t81.5 -113t27.5 -132.5q0 -101 -56.5 -186t-172 -140t-266.5 -57v-240h-96v250q-80 19 -148.5 55.5t-138.5 99.5l-48 -138h-70zM288 1084q0 -52 24.5 -95t81 -77t186.5 -77v467 q-77 1 -130 -18q-74 -27 -118 -79.5t-44 -120.5zM676 99q78 -1 139 22q86 32 133.5 93.5t47.5 139.5q0 91 -67 156.5t-253 116.5v-528z" />
<glyph unicode="%" horiz-adv-x="1843" d="M72 1044q0 179 90 277t237 98t231 -95q93 -105 93 -286q0 -171 -92.5 -270.5t-239.5 -99.5q-153 0 -244 117q-75 97 -75 259zM209 1035q0 -102 25 -170t67.5 -100.5t92.5 -32.5q51 0 95 32.5t70 103.5t26 176q0 140 -47.5 225.5t-140.5 85.5q-53 0 -93 -30.5t-67.5 -108 t-27.5 -181.5zM397 -24l928 1443h121l-929 -1443h-120zM1121 352q0 179 89.5 276.5t237.5 97.5q147 0 231 -95q92 -104 92 -286q0 -170 -92.5 -269.5t-239.5 -99.5q-153 0 -243 116q-75 97 -75 260zM1257 343q0 -102 25.5 -170.5t68 -100.5t91.5 -32q52 0 95.5 32.5 t69.5 103t26 175.5q0 141 -47 226.5t-141 85.5q-52 0 -92.5 -30.5t-68 -108t-27.5 -181.5z" />
<glyph unicode="&#x26;" horiz-adv-x="1638" d="M97 408q0 110 52.5 200t157.5 160q77 51 190 87q-83 34 -126 72t-66 88t-23 108q0 121 93 203q105 93 252 93q145 0 240 -85t95 -201q0 -78 -39 -144.5t-109 -109.5q-44 -29 -116 -46q87 -28 147 -73.5t123.5 -132.5t123.5 -221q97 215 97 322q0 36 -22 52t-88 16h-59v85 h466v-85h-56q-61 0 -82 -8.5t-37 -29.5t-23 -64q-37 -213 -151 -393q20 -55 67 -115t82 -80t75 -20q51 0 85 31.5t34 73.5q0 35 -13 55q-14 20 -59 42q-36 18 -51 41t-15 51q0 40 25.5 65t67.5 25q71 0 123.5 -61.5t52.5 -155.5q0 -112 -85 -194.5t-205 -82.5 q-82 0 -155.5 41t-145.5 140q-102 -91 -180 -128q-112 -53 -243 -53q-145 0 -260 58.5t-177.5 157.5t-62.5 216zM283 441q0 -126 84 -227q107 -129 271 -129q81 0 157 35q105 50 172 118q-8 13 -25 47l-157 308q-20 40 -55 93q-22 33 -56.5 63t-87.5 57q-123 -61 -151 -82 q-46 -33 -82 -81.5t-53 -98t-17 -103.5zM436 1118q0 -91 55.5 -150t135.5 -59q78 0 134.5 59t56.5 147q0 94 -55.5 153t-135.5 59q-81 0 -136 -58t-55 -151z" />
<glyph unicode="'" horiz-adv-x="451" d="M149 1310q0 56 21.5 82.5t57.5 26.5q33 0 53.5 -24t20.5 -71q0 -27 -7 -66l-54 -353h-41l-48 350q-3 26 -3 55z" />
<glyph unicode="(" horiz-adv-x="614" d="M180 506q0 287 39.5 459.5t128.5 322.5q67 113 145 169l63 -62q-54 -57 -90 -140q-53 -125 -76.5 -293.5t-23.5 -475.5q0 -316 22 -474t75 -281q36 -86 93 -147l-63 -57q-97 86 -169.5 217t-108 302.5t-35.5 459.5z" />
<glyph unicode=")" horiz-adv-x="614" d="M59 -410q55 56 90 140q53 124 76.5 292.5t23.5 476.5q0 315 -22 473t-74 281q-37 86 -94 147l63 57q97 -85 169.5 -216.5t108 -302.5t35.5 -460q0 -287 -39 -459t-128 -322q-68 -114 -146 -170z" />
<glyph unicode="*" horiz-adv-x="901" d="M86 1128q0 34 20.5 56.5t51.5 22.5q53 0 96 -31l131 -90l43 30l-43 153q-9 29 -9 58q0 45 20.5 68.5t54.5 23.5t50 -21q23 -29 23 -75q0 -24 -8 -54l-40 -153l40 -30l129 90q48 35 89 35q39 0 60 -22t21 -59q0 -33 -35 -59.5t-90 -26.5h-159l-15 -52l129 -97 q62 -47 62 -107q0 -26 -24.5 -48.5t-54.5 -22.5q-18 0 -48 21.5t-49 74.5l-55 152h-48l-55 -152q-18 -49 -45.5 -73.5t-51.5 -24.5q-30 0 -54.5 23.5t-24.5 46.5q0 59 64 110l124 97l-12 52h-161q-57 0 -91.5 25.5t-34.5 58.5z" />
<glyph unicode="+" horiz-adv-x="1229" d="M127 636v123h426v426h123v-426h426v-123h-426v-426h-123v426h-426z" />
<glyph unicode="," horiz-adv-x="655" d="M167 -296q205 167 205 279q0 13 -2 32q-17 -7 -33 -11t-30 -4q-48 0 -77 31t-29 79q0 47 35 82t84 35q68 0 116.5 -54.5t48.5 -140.5q0 -56 -23 -117.5t-67 -114t-174 -162.5z" />
<glyph unicode="-" horiz-adv-x="819" d="M112 447v124h594v-124h-594z" />
<glyph unicode="." horiz-adv-x="655" d="M202 108q0 52 36.5 88.5t88.5 36.5q53 0 89.5 -36.5t36.5 -88.5t-37 -88.5t-89 -36.5q-51 0 -88 36.5t-37 88.5z" />
<glyph unicode="/" horiz-adv-x="1229" d="M170 -446l679 1913h152l-683 -1913h-148z" />
<glyph unicode="0" d="M104 698q0 247 69.5 403t189.5 237t275 81q154 0 269 -78.5t187 -246.5t72 -407q0 -354 -177 -551q-144 -160 -364 -160q-149 0 -264 79.5t-186 238.5t-71 404zM295 678q0 -152 28.5 -275.5t75.5 -192t106.5 -101.5t125.5 -33q99 0 185 77q69 63 109 188q48 152 48 357 q0 212 -49 360t-120.5 205t-170.5 57q-104 0 -183 -76q-69 -66 -109 -208q-46 -162 -46 -358z" />
<glyph unicode="1" d="M342 0v84h109q71 0 94.5 12.5t36.5 40t13 100.5v952h-253v86q207 29 346 120h75v-1158q0 -82 10.5 -105.5t34.5 -35.5t95 -12h98v-84h-659z" />
<glyph unicode="2" d="M102 0v84l160 121q182 135 267 207q161 136 242.5 232.5t112 174t30.5 162.5q0 141 -90.5 231t-235.5 90q-104 0 -185.5 -45t-128.5 -126t-47 -175q0 -35 5 -87l-97 -12q-8 71 -8 116q0 118 64 223t178.5 164t262.5 59q143 0 251 -55.5t165.5 -152t57.5 -220.5 q0 -105 -37.5 -194.5t-120.5 -180.5q-62 -68 -251 -208q-238 -178 -365 -258h520q92 0 120 17q39 22 53 102l9 57h85l-68 -376h-64l-11 50h-874z" />
<glyph unicode="3" d="M99 304q0 41 26.5 68.5t66.5 27.5q44 0 75 -34q17 -19 39 -91q31 -101 105 -154t184 -53q98 0 175.5 43t122.5 122t45 173q0 76 -32.5 136.5t-92.5 102.5q-46 33 -117.5 46t-128.5 13h-93v97h59q88 0 168 20.5t128 84.5t48 145q0 70 -33.5 126t-98.5 89t-150 33 q-83 0 -152.5 -34t-111.5 -91t-60 -152l-96 15q13 108 56 179q57 96 161 149.5t239 53.5q133 0 234 -47.5t152.5 -126t51.5 -169.5q0 -80 -39 -143t-116 -113q-54 -35 -141 -61q93 -13 152 -43q96 -49 151 -135t55 -189q0 -165 -145 -290.5t-375 -125.5q-227 0 -382 121 q-130 103 -130 207z" />
<glyph unicode="4" d="M85 459v176l657 760h169v-811h262v-125h-262v-459h-169v459h-657zM176 584h566v656z" />
<glyph unicode="5" d="M151 288q0 39 26 67.5t67 28.5q42 0 74 -35q18 -18 43 -88q34 -98 101 -144q66 -47 166 -47t178 43.5t123 125t45 181.5q0 105 -48.5 187t-139 127t-220.5 45q-79 0 -169.5 -17t-155.5 -43l34 676h622q57 0 69 6q17 10 20 43h73v-211h-691l-17 -352q43 12 109 20 q85 10 152 10q167 0 291 -60t188.5 -164.5t64.5 -233.5q0 -200 -150 -338.5t-382 -138.5q-134 0 -242.5 48t-169.5 126.5t-61 137.5z" />
<glyph unicode="6" d="M131 616q0 213 72.5 378t200.5 265t280.5 131t273.5 31h78v-91q-247 -3 -399.5 -72t-224.5 -206.5t-81 -338.5q51 78 104.5 121.5t125 67t156.5 23.5q136 0 242 -60t165 -162.5t59 -241.5q0 -221 -133 -347q-147 -138 -381 -138q-169 0 -285 70t-184.5 214t-68.5 356z M342 448q0 -108 45 -199.5t116 -136t160 -44.5q138 0 229.5 104.5t91.5 280.5q0 168 -89 267t-224 99q-144 0 -236.5 -109t-92.5 -262z" />
<glyph unicode="7" d="M112 1044l110 402h66l12 -51h874v-85q-157 -181 -284.5 -412.5t-197.5 -471.5q-51 -173 -83 -426h-205q30 223 98.5 417t198 405.5t314.5 422.5h-623q-68 0 -93 -7t-39 -22t-24 -53l-5 -19l-34 -118z" />
<glyph unicode="8" d="M115 359q0 111 78 199q94 105 268 164q-136 64 -196 130q-77 87 -77 209q0 151 114 244q140 114 350 114q192 0 310.5 -98.5t118.5 -225.5q0 -63 -29.5 -120.5t-90.5 -107t-169 -93.5q118 -45 180 -85q91 -58 137 -136.5t46 -170.5q0 -165 -142 -285.5t-383 -120.5 q-255 0 -400 136q-115 109 -115 247zM273 360q0 -114 101 -202.5t261 -88.5q163 0 272 101q89 82 89 176q0 74 -58.5 141.5t-217.5 131.5l-160 64q-141 -62 -223 -161q-64 -78 -64 -162zM343 1098q0 -72 51 -129t190 -112l117 -46q114 86 148 120t52.5 77.5t18.5 84.5 q0 59 -35 112.5t-102.5 86.5t-151.5 33q-124 0 -206 -68.5t-82 -158.5z" />
<glyph unicode="9" d="M88 935q0 220 133 346q147 138 382 138q169 0 285 -70t184 -214t68 -354t-71 -375t-198.5 -264.5t-280.5 -132.5t-277 -33h-78v93q248 3 400.5 71.5t224 206.5t80.5 338q-51 -78 -104.5 -121t-125 -67t-155.5 -24q-136 0 -242.5 60t-165.5 162t-59 240zM287 945 q0 -168 89.5 -266.5t224.5 -98.5q143 0 235.5 108.5t92.5 261.5q0 108 -45 199.5t-115.5 136t-160.5 44.5q-137 0 -229 -104.5t-92 -280.5z" />
<glyph unicode=":" horiz-adv-x="655" d="M202 108q0 52 36.5 88.5t88.5 36.5q53 0 89.5 -36.5t36.5 -88.5t-37 -88.5t-89 -36.5q-51 0 -88 36.5t-37 88.5zM202 861q0 52 38 90t87 38q52 0 89 -37t37 -89q0 -53 -37 -90t-89 -37q-51 0 -88 36.5t-37 88.5z" />
<glyph unicode=";" horiz-adv-x="655" d="M167 -296q205 167 205 279q0 13 -2 32q-17 -7 -33 -11t-30 -4q-48 0 -77 31t-29 79q0 47 35 82t84 35q68 0 116.5 -54.5t48.5 -140.5q0 -56 -23 -117.5t-67 -114t-174 -162.5zM202 861q0 52 38.5 90t87.5 38q52 0 88.5 -37t36.5 -89q0 -53 -36.5 -90t-88.5 -37t-89 36.5 t-37 88.5z" />
<glyph unicode="&#x3c;" horiz-adv-x="1229" d="M146 581v100l901 401v-144l-718 -307l718 -307v-143z" />
<glyph unicode="=" horiz-adv-x="1229" d="M127 479v123h975v-123h-975zM127 793v123h975v-123h-975z" />
<glyph unicode="&#x3e;" horiz-adv-x="1229" d="M182 181v143l718 307l-718 307v144l901 -401v-100z" />
<glyph unicode="?" horiz-adv-x="1106" d="M94 1197q0 79 92 139q128 83 308 83q162 0 286 -60.5t188 -160.5t64 -226q0 -197 -156.5 -306t-416.5 -110v-221h-104v355q199 -2 296.5 33t149 107.5t51.5 162.5q0 82 -45.5 161.5t-120.5 123.5t-160 44q-68 0 -117 -25.5t-92 -86.5q-42 -61 -60 -75q-35 -27 -70 -27 q-24 0 -47.5 12.5t-32.5 28.5q-13 24 -13 48zM280 108q0 52 36.5 88.5t89.5 36.5q52 0 88.5 -36.5t36.5 -88.5t-37 -88.5t-88 -36.5q-52 0 -89 36.5t-37 88.5z" />
<glyph unicode="@" horiz-adv-x="1679" d="M-43 444q0 272 126 496.5t345.5 353t474.5 128.5q214 0 374 -85.5t250 -244.5t90 -355q0 -202 -89.5 -379t-209.5 -252t-251 -75q-77 0 -116 36t-39 103q0 54 18 145q-142 -172 -231.5 -228.5t-161.5 -56.5q-49 0 -89.5 28t-66.5 84.5t-26 122.5q0 134 84 303 t221.5 282.5t245.5 113.5q43 0 81 -17.5t58.5 -43.5t32.5 -77l33 110l157 22l-117 -399l-67 -239q-16 -56 -22 -96q-4 -27 -4 -43q0 -34 21 -56t55 -22q80 0 181.5 78.5t171.5 238t70 335.5q0 175 -82.5 316.5t-230 220.5t-335.5 79q-231 0 -424 -119.5t-313.5 -346 t-120.5 -487.5q0 -234 100 -416t279 -282.5t404 -100.5q178 0 332 64t274.5 186t197.5 303h58q-33 -102 -75 -172q-75 -128 -196.5 -229.5t-275 -157t-320.5 -55.5q-247 0 -446 115t-312.5 316.5t-113.5 454.5zM513 296q0 -64 35 -104.5t81 -40.5q57 0 130 50.5t158 173.5 q43 63 70 140q55 159 55 255q0 68 -36 107.5t-89 39.5q-44 0 -100.5 -35.5t-129.5 -140t-123.5 -237t-50.5 -208.5z" />
<glyph unicode="A" horiz-adv-x="1393" d="M3 0v84q58 0 83.5 11.5t44.5 37t50 107.5l435 1155h165l433 -1166q32 -88 64.5 -116.5t87.5 -28.5h22v-84h-497v84q24 2 47 2q48 0 63 10q29 19 29 48q0 21 -28 103l-92 270h-506l-108 -302q-17 -47 -17 -65q0 -20 10.5 -35t28.5 -22.5t58 -7.5q27 0 44 -1v-84h-417z M441 615h431l-216 600z" />
<glyph unicode="B" horiz-adv-x="1515" d="M83 0v84h47q68 0 93 21q36 29 36 96v969q0 68 -11 93t-33 36t-85 11h-47v85h663q243 0 333 -22q133 -32 210.5 -116t77.5 -202q0 -85 -41 -152.5t-119 -115.5q-50 -31 -136 -53q109 -20 166 -48q86 -42 136 -120t50 -176q0 -95 -49 -176t-138.5 -133t-208.5 -66.5 t-245 -14.5h-699zM446 219q0 -69 6 -82q8 -18 32 -25q17 -5 96 -5h136q202 0 288.5 22.5t147.5 95t61 174.5q0 86 -49.5 152.5t-137 96t-310.5 29.5h-270v-458zM446 773h255q179 0 245 17q103 27 157.5 92t54.5 167q0 86 -49.5 143.5t-132.5 78.5q-54 13 -224 13h-306v-511z " />
<glyph unicode="C" horiz-adv-x="1515" d="M111 693q0 203 93 367.5t256.5 261.5t352.5 97q101 0 187.5 -27.5t175.5 -88.5l32 92h72l127 -465l-93 -26q-75 161 -114 216q-64 89 -159.5 141t-210.5 52q-135 0 -248.5 -72.5t-184 -212.5t-70.5 -315q0 -180 71.5 -321t193.5 -217t263 -76q133 0 272 76t241 213 l80 -55q-62 -92 -134 -156q-114 -103 -237 -152t-270 -49q-325 0 -528 241q-168 200 -168 476z" />
<glyph unicode="D" horiz-adv-x="1638" d="M97 0v84h58l19 -1q37 0 60.5 15t33.5 40q7 19 7 88v933q0 79 -10 102q-14 31 -45 43q-18 6 -123 6v85h498q342 0 477 -43q199 -63 323 -235q137 -190 137 -437q0 -168 -67.5 -312.5t-177.5 -232.5q-91 -74 -219 -104.5t-258 -30.5h-713zM461 108h302q45 0 149.5 16 t149.5 39q66 34 128 109.5t95.5 181t33.5 241.5q0 135 -33.5 234t-101 178t-150 120.5t-184.5 52.5q-55 5 -184 5h-205v-1177z" />
<glyph unicode="E" horiz-adv-x="1475" d="M98 0v84h40q70 0 87 9q26 13 40 42q10 20 10 87v960q0 65 -13 87t-45 34q-17 7 -119 7v85h1134l131 -367l-88 -33q-33 90 -72 141.5t-93.5 87.5t-110 48t-200.5 12h-338v-511h168q93 0 140.5 31.5t65.5 78.5q14 35 14 122v23h98v-612h-98v53q0 70 -10.5 101t-38.5 58.5 t-60.5 37.5t-110.5 10h-168v-454q0 -71 6.5 -86.5t21.5 -22.5t82 -7h209q175 0 273.5 42t173.5 129q59 68 113 192l91 -32l-156 -437h-1177z" />
<glyph unicode="F" horiz-adv-x="1311" d="M109 0v84h34q64 0 88.5 12t36 37.5t11.5 92.5v949q0 62 -11 87t-33.5 36.5t-78.5 11.5h-47v85h1067l129 -366l-87 -33q-55 128 -108 184t-123 80t-220 24h-301v-536h137q108 0 155 21t72 66.5t25 129.5v37h98v-612h-98v54q0 79 -24 123t-65.5 63.5t-147.5 19.5h-152v-434 q0 -60 12.5 -83.5t37 -36t87.5 -12.5h37v-84h-531z" />
<glyph unicode="G" horiz-adv-x="1638" d="M107 697q0 306 203 514t486 208q71 0 140 -14t126 -40q43 -19 100 -62l35 92h73l114 -430l-90 -31q-90 204 -207 291t-265 87q-213 0 -357 -177t-144 -422q0 -176 73.5 -323t196.5 -224t261 -77q89 0 169.5 32.5t130.5 77.5q37 34 50 75q12 38 12 104v10v66 q0 79 -18.5 112t-52.5 47q-26 11 -140 11v84h566v-84h-46q-59 0 -80.5 -11.5t-31.5 -35.5t-10 -94v-483h-99l-53 122q-84 -61 -179 -95q-142 -51 -281 -51q-281 0 -481.5 206.5t-200.5 514.5z" />
<glyph unicode="H" horiz-adv-x="1638" d="M97 0v84h34q78 0 97.5 8.5t31 32.5t11.5 85v961q0 65 -10.5 90t-33 37t-74.5 12h-56v85h538v-85h-37q-64 0 -91.5 -12t-38.5 -42q-9 -22 -9 -93v-389h723v379q0 77 -5 93q-8 32 -34.5 48t-80.5 16h-55v85h534v-85h-48q-56 0 -79.5 -12.5t-33 -34t-9.5 -92.5v-950 q0 -79 10 -100.5t40 -30.5q18 -6 120 -6v-84h-534v84h39q74 0 98.5 10t31.5 32q6 17 6 107v433h-723v-445q0 -79 10.5 -101t40.5 -30q22 -6 125 -6v-84h-538z" />
<glyph unicode="I" horiz-adv-x="696" d="M81 0v84h44q59 0 83.5 13.5t35.5 39t11 98.5v920q0 77 -11 103.5t-35.5 39t-83.5 12.5h-44v85h534v-85h-41q-58 0 -84 -16t-38 -45.5t-12 -114.5v-899q0 -68 13 -96.5t36.5 -41.5t84.5 -13h41v-84h-534z" />
<glyph unicode="J" horiz-adv-x="1229" d="M-5 352q0 75 34 116t85 41q40 0 66.5 -30t26.5 -78q0 -14 -8 -57q-9 -45 -9 -63q0 -74 75.5 -134.5t195.5 -60.5q99 0 178 44t113.5 110t34.5 191v729q0 74 -11.5 99.5t-36.5 38t-92 12.5h-33v85h534v-85h-53q-54 0 -76.5 -11t-34.5 -35t-12 -72v-737q0 -167 -54 -261.5 t-172.5 -156t-278.5 -61.5q-213 0 -342.5 113t-129.5 263z" />
<glyph unicode="K" horiz-adv-x="1475" d="M103 0v84h42q63 0 86 12.5t35.5 41.5t12.5 103v921q0 73 -12 99.5t-35 37.5t-98 11h-31v85h538v-85h-38q-66 0 -93 -16t-38 -50q-9 -25 -9 -82v-527l524 555q41 44 48.5 57t7.5 27q0 18 -17.5 27t-75.5 9h-32v85h500v-85h-8q-54 0 -99 -13q-48 -14 -76 -35 q-61 -45 -87 -72l-374 -383l427 -566q58 -77 92 -105.5t70 -40t112 -11.5v-84h-592v84h35q59 0 70 3q17 4 27 16t10 25q0 26 -69 119l-315 428l-178 -184v-267q0 -69 14 -94t43 -37q23 -9 121 -9v-84h-538z" />
<glyph unicode="L" horiz-adv-x="1229" d="M94 0v84h44q64 0 86 11t34 36.5t12 87.5v949q0 72 -11 96.5t-32 35t-89 10.5h-44v85h541v-85h-50q-58 0 -82 -11t-35 -32t-11 -75v-973q0 -67 5 -80q6 -18 26 -26q14 -6 81 -6h75q129 0 224 37.5t164 109t133 213.5l89 -30l-156 -437h-1004z" />
<glyph unicode="M" horiz-adv-x="1884" d="M96 0v84h28q71 0 101.5 15t43.5 42.5t13 108.5v911q0 76 -11 100.5t-36.5 36.5t-90.5 12h-48v85h441l412 -1105l401 1105h426v-85h-36q-65 0 -87.5 -11t-35.5 -38.5t-13 -90.5v-920q0 -87 10.5 -113t35 -39.5t90.5 -13.5h36v-84h-533v84h38q51 0 74.5 8t39 26.5 t17.5 38.5q5 41 5 64v1027l-455 -1248h-99l-459 1230v-989q0 -75 13 -101.5t40.5 -41t98.5 -14.5h32v-84h-492z" />
<glyph unicode="N" horiz-adv-x="1515" d="M88 0v84h25q72 0 97.5 14t39.5 48t14 115v884q0 83 -4 101q-9 34 -34.5 49t-101.5 15h-36v85h428l635 -1046v796q0 71 -14 102t-42 47t-83 16h-36v85h467v-85h-25q-62 0 -84 -10q-31 -14 -46.5 -51t-15.5 -104v-1145h-121l-765 1257v-996q0 -83 5 -101q7 -23 25.5 -42 t43.5 -26t101 -8v-84h-473z" />
<glyph unicode="O" horiz-adv-x="1638" d="M107 696q0 206 93 369.5t264 258.5t375 95q191 0 345 -92q167 -99 256.5 -257t89.5 -366q0 -322 -200 -525t-510 -203q-346 0 -548 244q-165 199 -165 476zM324 686q0 -195 66.5 -330.5t178.5 -207.5t252 -72q139 0 246 70.5t177 222t70 336.5q0 188 -70 344 q-60 134 -159 198t-246 64q-156 0 -268 -71.5t-179.5 -210.5t-67.5 -343z" />
<glyph unicode="P" d="M92 0v84h33q69 0 94 11.5t36.5 36t11.5 92.5v954q0 66 -10.5 88.5t-35 33t-96.5 10.5h-33v85h551q251 0 346 -32q119 -38 196.5 -130t77.5 -234q0 -121 -59 -209q-71 -106 -172.5 -150.5t-319.5 -44.5h-255v-358q0 -80 9 -101q12 -29 33 -40.5t85 -11.5h48v-84h-540z M457 701h215q163 0 228.5 29t108.5 100.5t43 167.5q0 105 -50 175.5t-136 95.5q-60 17 -234 17h-175v-585z" />
<glyph unicode="Q" horiz-adv-x="1638" d="M107 697q0 206 93 369.5t262.5 258t372.5 94.5q194 0 348 -91q167 -99 257 -257.5t90 -367.5q0 -295 -170 -491.5t-444 -230.5q-2 -22 -2 -37q0 -81 61 -134.5t159 -53.5q57 0 115 17.5t132 60.5l54 -80q-198 -120 -352 -120q-105 0 -201 44q-72 34 -113.5 101t-41.5 150 q0 16 3 52q-272 27 -447.5 227t-175.5 489zM324 686q0 -195 66.5 -330.5t178.5 -207.5t252 -72q139 0 246 70.5t177 222t70 336.5q0 188 -70 344q-60 134 -159 198t-246 64q-156 0 -268 -71.5t-179.5 -210.5t-67.5 -343z" />
<glyph unicode="R" horiz-adv-x="1475" d="M99 0v84h48q54 0 72.5 7t33 24.5t20.5 44.5q2 11 3 101v914q0 60 -12 86t-33.5 37.5t-74.5 11.5h-57v85h720q205 0 310 -42.5t161.5 -123t56.5 -186.5q0 -109 -55 -193.5t-158.5 -133t-274.5 -50.5l368 -450q45 -56 59 -69q35 -31 73.5 -47t86.5 -16h25v-84h-318 l-512 666h-179v-430q0 -72 5 -90q11 -34 35.5 -48t95.5 -14h36v-84h-535zM462 761h287q146 0 205 18q84 24 132.5 88t48.5 163q0 84 -35 141.5t-95.5 86t-180.5 28.5h-362v-525z" />
<glyph unicode="S" horiz-adv-x="1352" d="M119 501l93 19q51 -139 135.5 -236t187 -146.5t208.5 -49.5q144 0 252 87q90 73 90 172q0 91 -65 149q-66 58 -236 108l-250 72q-210 61 -296 156t-86 218q0 96 56 177.5t172 136.5t254 55q116 0 222 -40q75 -28 138 -80l42 96h72l107 -430l-92 -28q-88 181 -234 285 q-120 87 -266 87q-88 0 -158 -31.5t-105 -81.5t-35 -102q0 -47 27 -91t82 -77.5t180 -70.5l261 -77q48 -14 139.5 -54t142.5 -84.5t80 -109t29 -139.5q0 -166 -145.5 -290.5t-376.5 -124.5q-119 0 -213 34.5t-203 122.5l-46 -133h-70z" />
<glyph unicode="T" d="M-19 1032l144 410h70l10 -47h856l8 47h73l147 -410l-90 -32q-65 164 -154 230.5t-228 66.5q-58 0 -69 -4.5t-15.5 -15.5t-4.5 -70v-968q0 -69 7.5 -93t21.5 -37t38.5 -18.5t109.5 -6.5v-84h-538v84q89 1 109 6q35 10 50 38t15 103v989q0 46 -4.5 56t-17 15.5t-51.5 5.5 q-109 0 -174.5 -28t-123.5 -95t-99 -174z" />
<glyph unicode="U" horiz-adv-x="1597" d="M78 1310v85h539v-85h-36q-66 0 -94 -13q-22 -10 -33 -34t-11 -96v-628q0 -168 40.5 -249t135 -136t207.5 -55q114 0 216 59t143 140t41 256v604q0 66 -13 95t-39.5 43t-82.5 14h-39v85h467v-85h-32q-79 0 -108.5 -30t-29.5 -113v-643q0 -176 -66 -293.5t-192 -186 t-293 -68.5q-158 0 -289 70t-192.5 174.5t-61.5 262.5v684q0 66 -12 92.5t-35 38.5t-80 12h-50z" />
<glyph unicode="V" horiz-adv-x="1434" d="M2 1310v85h509v-85h-39q-54 0 -68 -4q-20 -6 -30.5 -19.5t-10.5 -30.5q0 -27 20 -78l370 -966l374 966q20 51 20 77q0 29 -20 42t-82 13h-46v85h433v-85h-9q-49 0 -73 -10q-26 -11 -44 -31q-21 -27 -47 -91l-474 -1178h-142l-469 1178q-23 58 -32 72q-14 21 -31.5 34 t-41.5 19.5t-67 6.5z" />
<glyph unicode="W" horiz-adv-x="1966" d="M26 1310v85h500v-85h-53q-52 0 -71 -10q-29 -16 -29 -48q0 -23 16 -73l286 -930l248 764l-58 185q-21 66 -64 95q-26 17 -91 17v85h496v-85h-47q-61 0 -82 -15t-21 -41q0 -22 16 -75l287 -936l289 936q15 49 15 74q0 29 -20 43t-79 14h-50v85h426v-85h-8q-48 0 -72 -10 q-26 -12 -43.5 -33.5t-37.5 -87.5l-385 -1179h-145l-269 834l-270 -834h-144l-378 1179q-27 85 -67 112q-30 19 -95 19z" />
<glyph unicode="X" horiz-adv-x="1475" d="M3 0v84q62 0 90.5 8.5t57.5 30.5t74 77l421 507l-374 493q-56 74 -91.5 92t-114.5 18v85h533v-85h-42q-60 0 -76 -8t-16 -26q0 -12 6 -24t36 -52l261 -356l285 356q40 50 40 76q0 16 -15.5 25t-65.5 9h-51v85h453v-85q-81 0 -116.5 -17t-98.5 -93l-364 -437l429 -563 q41 -54 69 -76.5t54 -31t86 -8.5v-84h-535v84h42q62 0 78.5 8.5t16.5 27.5q0 11 -6 23q-2 5 -40 57l-319 426l-349 -439q-32 -39 -36 -48q-6 -11 -6 -21q0 -19 23 -28q15 -6 71 -6h42v-84h-452z" />
<glyph unicode="Y" horiz-adv-x="1311" d="M5 1310v85h522v-85h-59q-54 0 -69.5 -10t-15.5 -33q0 -20 19 -54q5 -8 13 -23l272 -504l301 523q18 32 21.5 41.5t3.5 19.5q0 14 -7.5 23.5t-23.5 14.5q-10 2 -56 2h-52v85h431v-85h-12q-48 0 -73 -7q-27 -8 -44.5 -24.5t-49.5 -69.5l-378 -630v-351q0 -77 12.5 -100 t39.5 -33.5t126 -10.5v-84h-545v84h42q67 0 89.5 12t35.5 39q9 19 9 93v314l-369 656q-44 79 -73.5 94.5t-109.5 17.5z" />
<glyph unicode="Z" horiz-adv-x="1311" d="M53 0v84l913 1203h-290q-146 0 -231 -28t-149 -87.5t-134 -186.5l-86 42l169 368h971v-85l-911 -1202h335q228 0 347.5 76.5t213.5 279.5l92 -31l-161 -433h-1079z" />
<glyph unicode="[" horiz-adv-x="614" d="M208 -473v1930h310v-95h-165v-1739h165v-96h-310z" />
<glyph unicode="\" horiz-adv-x="1229" d="M240 1467h152l667 -1913h-149z" />
<glyph unicode="]" horiz-adv-x="614" d="M96 -377h165v1739h-165v95h310v-1930h-310v96z" />
<glyph unicode="^" horiz-adv-x="1229" d="M104 595l442 824h135l443 -824h-142l-368 662l-368 -662h-142z" />
<glyph unicode="_" horiz-adv-x="1024" d="M-12 -154h1048v-102h-1048v102z" />
<glyph unicode="`" horiz-adv-x="696" d="M140 1334q0 34 20.5 55.5t52.5 21.5q64 0 159 -70l185 -136v-35l-286 60q-75 16 -103 41.5t-28 62.5z" />
<glyph unicode="a" horiz-adv-x="1188" d="M80 234q0 61 31.5 116t96 97t202.5 74t383 58v109q0 111 -62 158.5t-175 47.5q-56 0 -98 -13.5t-67.5 -37t-37.5 -53.5q-5 -11 -24 -85q-23 -90 -93 -90q-40 0 -64.5 26.5t-24.5 71.5q0 66 49 129.5t149.5 105t237.5 41.5q128 0 219 -39.5t134 -113.5q30 -51 30 -186 v-385q0 -82 5 -107q11 -43 38.5 -64.5t71.5 -21.5q46 0 110 22v-87q-83 -24 -149 -24q-71 0 -119.5 20t-79.5 58.5t-40 91.5q-120 -94 -217 -132t-196 -38q-138 0 -224 75t-86 176zM263 252q0 -39 22.5 -75.5t63.5 -57.5t87 -21q65 0 147 31t210 121v242q-232 -34 -287 -47 q-109 -25 -156 -55t-67 -64.5t-20 -73.5z" />
<glyph unicode="b" d="M57 1300v83q66 5 127.5 24t137.5 60h73v-610q88 66 181 99t190 33q112 0 207 -60t149.5 -169.5t54.5 -258.5q0 -234 -137 -385q-127 -140 -322 -140q-117 0 -209 49q-68 36 -132 111l-55 -136h-93v1300h-172zM395 373q0 -91 13 -127.5t53.5 -75t95 -61t112.5 -22.5 q89 0 162 47t115 139t42 221q0 181 -89 290q-71 90 -199 90q-66 0 -134 -24.5t-171 -91.5v-385z" />
<glyph unicode="c" horiz-adv-x="1065" d="M84 485q0 145 65.5 260.5t182 179.5t267.5 64q172 0 287 -84.5t115 -170.5q0 -46 -27 -71t-61 -25q-18 0 -35 9t-35 29q-8 9 -29 56q-27 58 -42 78q-31 40 -76.5 63t-101.5 23q-85 0 -157.5 -47t-115 -138.5t-42.5 -218.5q0 -197 105 -313q91 -100 217 -100 q58 0 117.5 19.5t112.5 57.5q39 27 127 123l64 -52q-188 -251 -451 -251q-205 0 -346 146t-141 363z" />
<glyph unicode="d" d="M82 472q0 146 63.5 267.5t167.5 185.5t228 64q95 0 176 -33t148 -99v441h-168v85q68 6 124.5 23.5t141.5 60.5h75v-1213q0 -84 4 -102q10 -38 34 -53t93 -15h43v-84l-347 -16v159q-100 -91 -187.5 -129t-175.5 -38q-181 0 -300.5 145.5t-119.5 350.5zM275 479 q0 -120 38.5 -207.5t103.5 -133t133 -45.5q67 0 152 38.5t163 110.5v378q0 81 -30.5 132.5t-100 89.5t-142.5 38q-87 0 -160.5 -47.5t-115 -137t-41.5 -216.5z" />
<glyph unicode="e" horiz-adv-x="1065" d="M86 478q0 158 61 270t170.5 176.5t253.5 64.5q107 0 186 -33.5t134 -101t80 -154.5q14 -51 16 -132h-707q-3 -49 -3 -73q0 -126 44 -224.5t116.5 -145t164.5 -46.5q78 0 151 36.5t177 142.5l64 -52q-73 -87 -141.5 -138t-129.5 -71.5t-143 -20.5q-147 0 -250 60 q-118 69 -181 180t-63 262zM295 662h507q-15 92 -42.5 136t-78 70t-113.5 26t-118 -26t-91.5 -72t-63.5 -134z" />
<glyph unicode="f" horiz-adv-x="655" d="M68 0v84h31q79 0 100.5 10t30.5 32q9 21 9 88v15v634h-171v102h171v150q0 155 102.5 253.5t267.5 98.5q110 0 171.5 -46t61.5 -100q0 -36 -24.5 -60.5t-61.5 -24.5q-33 0 -57 12t-74 60q-53 50 -101 50q-33 0 -59.5 -20.5t-41 -60t-14.5 -121.5v-191h188v-102h-188v-649 q0 -67 10 -89.5t30 -31.5t93 -9h41v-84h-515z" />
<glyph unicode="g" horiz-adv-x="1106" d="M70 -238q0 62 40.5 121t187.5 168q-95 24 -136 56q-52 41 -52 93q0 26 9.5 48.5t31 45t78.5 62.5q36 25 51 37q-73 52 -110 116.5t-37 141.5q0 127 98 222q119 116 321 116q90 0 157 -22.5t138 -80.5q45 53 91.5 78t85.5 25q36 0 60.5 -21.5t24.5 -52.5q0 -32 -22 -54 t-56 -22q-14 0 -38 5q-28 7 -47 7q-25 0 -52 -23q62 -75 62 -176q0 -138 -116 -239t-293 -101q-98 0 -197 41q-66 -47 -75 -58q-14 -17 -14 -36q0 -29 30 -48q38 -25 150 -42l289 -43q96 -15 193 -50t140.5 -91t43.5 -134q0 -132 -122 -211q-155 -101 -460 -101 q-160 0 -260 34t-155 96q-40 45 -40 93zM225 -203q0 -40 31.5 -77.5t107.5 -61.5t191 -24q136 0 233.5 29.5t139.5 75.5q31 36 31 85q0 42 -25.5 71t-96 50.5t-131.5 31.5l-322 51q-96 -82 -127.5 -133t-31.5 -98zM309 649q0 -70 31 -126.5t87 -89t118 -32.5t118.5 33t87 89 t30.5 126q0 110 -66.5 178.5t-171.5 68.5q-98 0 -166 -71t-68 -176z" />
<glyph unicode="h" horiz-adv-x="1352" d="M74 0v84h31q73 0 106 18q18 9 26 35t8 144v1016h-171v86q97 13 151 30.5t113 53.5h78v-661q113 95 214 139t193 44q134 0 221 -80q86 -80 86 -195v-491q0 -73 11.5 -95.5t38.5 -33t121 -10.5v-84h-516v84h38q73 0 96 11.5t33.5 38t10.5 109.5v341q0 113 -8 147 q-15 58 -62 93t-120 35q-82 0 -171.5 -40.5t-185.5 -121.5v-501q0 -56 10 -75t33 -28t92 -9h41v-84h-518z" />
<glyph unicode="i" horiz-adv-x="614" d="M66 0v84h41q67 0 90 12t32.5 34t9.5 103v588h-173v83q83 10 139.5 28t128.5 57h73v-802q0 -42 12 -63t33.5 -30.5t78.5 -9.5h47v-84h-512zM205 1325q0 48 34 81.5t82 33.5t82 -33.5t34 -81.5t-34 -82t-82 -34t-82 34t-34 82z" />
<glyph unicode="j" horiz-adv-x="614" d="M-180 -334q0 40 25.5 66t66.5 26q24 0 41.5 -9t49.5 -41q48 -48 77 -64q21 -12 47 -12q62 0 98 60q27 44 27 143v986h-174v82q75 7 129 24t140 62h73v-1089q0 -118 -45 -198t-126 -127t-193 -47q-108 0 -172 45t-64 93zM218 1325q0 48 33.5 81.5t81.5 33.5t82 -33.5 t34 -81.5t-34 -82t-82 -34t-81.5 34t-33.5 82z" />
<glyph unicode="k" d="M60 0v84q87 1 107 7q35 11 50.5 39t15.5 108v1063h-173v82q128 10 265 84h77v-998l367 292q88 70 88 93q0 14 -19 22q-12 5 -59 5h-53v84h507v-84q-85 0 -136 -17.5t-118 -68.5l-290 -221l342 -374q49 -54 80 -76t62 -30.5t97 -9.5v-84h-532v84h41q61 0 77 9.5t16 25.5 t-30 46q-5 5 -11 12l-266 306l-163 -125v-131q0 -73 11 -96t34.5 -35t90.5 -12h37v-84h-515z" />
<glyph unicode="l" horiz-adv-x="614" d="M63 0v84h52q49 0 73.5 15t35 41t10.5 104v1057h-171v82q136 10 265 84h74v-1231q0 -78 10 -98q13 -28 38 -41t96 -13h32v-84h-515z" />
<glyph unicode="m" horiz-adv-x="1925" d="M72 0v84h27q69 0 91 11q32 15 46 48q8 18 8 93v585h-172v85q75 7 131 24.5t128 58.5h74v-168q114 90 178 121q98 47 187 47q61 0 119.5 -22.5t94 -55.5t60.5 -90q105 93 194.5 130.5t181.5 37.5q88 0 155.5 -36.5t98 -91.5t30.5 -161v-464q0 -73 3 -85q5 -19 21.5 -36 t37.5 -24t78 -7h32v-84h-503v84q86 1 111.5 12.5t38 37.5t12.5 102v441q0 84 -15 116t-53.5 53.5t-95.5 21.5q-71 0 -149 -38q-104 -52 -164 -117v-477q0 -69 6.5 -90.5t22 -36t36 -20t99.5 -5.5v-84h-493v84h28q59 0 83.5 14t38.5 43q10 23 10 95v426q0 94 -14.5 127 t-55.5 56t-96 23q-65 0 -131 -32q-98 -47 -180 -123v-514q0 -46 12.5 -67.5t39.5 -34.5t74 -13h37v-84h-503z" />
<glyph unicode="n" horiz-adv-x="1352" d="M75 0v84h25q74 0 101 12.5t38 44.5q6 16 6 110v570h-170v84q89 10 133 24t127 60h72v-190q132 111 225.5 150.5t189.5 39.5q82 0 145 -27.5t102.5 -74.5t52.5 -107q8 -37 8 -112v-440q0 -79 11.5 -101.5t36.5 -32.5t123 -10v-84h-515v84h28q72 0 98 13t37.5 38t11.5 102 v368q0 114 -18.5 158t-63 71.5t-112.5 27.5q-81 0 -173 -41.5t-178 -122.5v-461q0 -78 11.5 -104t37.5 -39q18 -10 96 -10h29v-84h-515z" />
<glyph unicode="o" horiz-adv-x="1147" d="M82 482q0 149 63 264.5t176.5 179t257.5 63.5q147 0 254.5 -61t169.5 -178t62 -267t-63.5 -267t-173 -178.5t-261.5 -61.5q-242 0 -363.5 151t-121.5 355zM278 476q0 -206 85 -314q77 -96 209 -96q85 0 151.5 45t107.5 143.5t41 231.5q0 130 -44 233q-34 82 -102.5 127.5 t-154.5 45.5q-114 0 -193 -90q-100 -112 -100 -326z" />
<glyph unicode="p" d="M64 -362h45q69 0 89.5 10.5t30.5 32.5q6 17 6 104v1037h-171v82q75 0 133 19t127 66h79v-167q125 99 208 133t166 34q171 0 291.5 -134t120.5 -349q0 -238 -137 -390q-125 -140 -322 -140q-98 0 -184 37q-62 26 -143 93v-329q0 -74 4 -87q5 -19 20 -32t38 -17 q17 -3 114 -3v-84h-515v84zM403 375q0 -68 8 -101q12 -51 46.5 -92t94 -70t124.5 -29q130 0 225.5 98t95.5 297q0 186 -79 287.5t-187 101.5q-70 0 -152 -37t-176 -111v-344z" />
<glyph unicode="q" horiz-adv-x="1188" d="M71 477q0 202 119 348q134 164 349 164q93 0 166.5 -31.5t168.5 -120.5l42 128h109v-1180q0 -74 9 -95q13 -28 37 -40t87 -12h44v-84h-517v84h44q58 0 80 11t33.5 33.5t11.5 80.5v356q-42 -40 -106 -74t-133 -54q-52 -15 -111 -15q-117 0 -215.5 61t-158 178.5 t-59.5 261.5zM263 480q0 -176 87 -283t204 -107q63 0 135.5 28.5t164.5 98.5v376q0 104 -28.5 156.5t-99 91t-146.5 38.5q-85 0 -158.5 -47.5t-116 -137.5t-42.5 -214z" />
<glyph unicode="r" horiz-adv-x="901" d="M72 0v84h43q61 0 80 11q26 15 38.5 41.5t12.5 95.5v590h-174v82q73 6 130 24.5t130 60.5h75v-189q71 87 165 138t169 51q74 0 117 -35t43 -85q0 -36 -28.5 -63.5t-68.5 -27.5q-18 0 -31 5t-38 22q-55 36 -92 36q-50 0 -110 -42q-76 -54 -119 -106v-461q0 -60 6.5 -81.5 t21.5 -37t37 -22.5t77 -7h33v-84h-517z" />
<glyph unicode="s" horiz-adv-x="1065" d="M98 327l91 36q91 -144 172 -204q113 -85 244 -85q87 0 143 46.5t56 103.5q0 47 -35 86q-36 38 -138 74l-231 84q-149 54 -207 118t-58 147q0 101 94.5 178.5t240.5 77.5q76 0 136 -19.5t118 -64.5l27 60h70l90 -306l-90 -30q-54 123 -151.5 193.5t-197.5 70.5 q-77 0 -125 -37.5t-48 -86.5q0 -46 35 -79q34 -34 153 -77l195 -69q165 -59 225 -126q59 -68 59 -154q0 -73 -44 -140.5t-127.5 -107.5t-191.5 -40q-168 0 -288 96l-21 -72h-71z" />
<glyph unicode="t" horiz-adv-x="778" d="M66 865v84q84 19 135.5 59t83.5 104t52 193h71v-340h297v-100h-297v-603q0 -77 13.5 -110t46 -54t72.5 -21q95 0 210 85v-97q-131 -89 -265 -89q-76 0 -137.5 34t-84 80t-22.5 160v615h-175z" />
<glyph unicode="u" horiz-adv-x="1393" d="M20 881v84l379 15v-644q0 -85 23.5 -135t72 -77.5t113.5 -27.5q80 0 181.5 43t202.5 128v466q0 74 -11 97t-39 37t-88 14h-73v84l379 15v-746q0 -72 12 -99.5t35.5 -39t94.5 -11.5h31v-84l-332 -17v185q-137 -109 -239 -150.5t-207 -41.5q-78 0 -135.5 21t-101 63 t-66.5 101t-23 126v455q0 61 -11 85.5t-36.5 39t-69.5 14.5h-92z" />
<glyph unicode="v" horiz-adv-x="1065" d="M0 881v84h458v-84h-28q-57 0 -71 -4q-20 -6 -30 -19t-10 -31q0 -25 22 -81l228 -569l221 569q21 55 21 80q0 26 -20 40.5t-72 14.5h-48v84h395v-84q-41 -1 -68.5 -13t-43 -31t-46.5 -91l-319 -746h-120l-321 763q-20 47 -44 77q-16 19 -42.5 30t-61.5 11z" />
<glyph unicode="w" horiz-adv-x="1597" d="M-1 881v84h460v-84h-32q-59 0 -78 -9q-30 -14 -30 -44q0 -28 23 -90l207 -547l202 508l-18 47q-31 81 -72 112q-27 20 -80 23v84h458v-84h-39q-55 0 -71 -9q-28 -16 -28 -51q0 -30 21 -83l207 -547l202 555q16 45 17 51q3 11 3 23q0 28 -22 44.5t-81 16.5h-37v84h388v-84 q-43 -2 -70 -15t-43 -34t-45 -94l-292 -738h-120l-231 576l-228 -576h-119l-295 738q-28 71 -46 94t-44.5 36t-66.5 13z" />
<glyph unicode="x" horiz-adv-x="1147" d="M-2 0v84q49 1 77 10.5t54 29.5q45 36 65 57l293 301l-249 286q-47 53 -74.5 74.5t-53.5 30t-73 8.5v84h503v-84h-35q-30 0 -55 -7q-15 -4 -24.5 -15.5t-9.5 -21.5q0 -23 38 -69l143 -180l167 180q46 50 46 75q0 18 -16 28t-69 10h-38v84h427v-84q-63 -3 -108.5 -26 t-107.5 -87l-229 -238l285 -325l11 -14q42 -54 94 -87q29 -19 90 -20v-84h-491v84h42q48 0 61 6q22 10 22 34q0 22 -48 81l-182 223l-203 -223l-20 -24l-11 -12q-25 -27 -25 -48q0 -19 15.5 -28t69.5 -9h40v-84h-421z" />
<glyph unicode="y" horiz-adv-x="1106" d="M-35 -314q0 37 23 61.5t54 24.5q24 0 45 -10q13 -5 54 -42q50 -44 70.5 -54t40.5 -10q41 0 81 28t68 79q40 73 66 137l41 100l-330 739q-35 78 -59 105t-48 33q-13 4 -82 4v84h486v-84h-40q-57 0 -68 -3q-13 -4 -22 -16.5t-9 -31.5q0 -27 27 -91l232 -545l215 521 q38 92 38 122q0 23 -17 33.5t-77 10.5h-47v84h409v-84h-24q-60 0 -78 -8t-35 -32.5t-54 -111.5l-367 -855q-40 -92 -89 -170.5t-123 -121.5t-163 -43q-103 0 -165 47q-53 40 -53 100z" />
<glyph unicode="z" horiz-adv-x="983" d="M36 0v84l674 781h-197q-137 0 -213.5 -49t-141.5 -186l-86 41l133 294h729v-84l-674 -788h166q195 0 280 47q117 66 174 223l89 -32l-123 -331h-810z" />
<glyph unicode="{" horiz-adv-x="573" d="M79 470v41q105 14 166.5 75.5t61.5 139.5q0 48 -25 152q-21 89 -21 157q0 102 58 192t155 144q69 39 163 51v-35q-116 -28 -171 -90.5t-55 -146.5q0 -52 24 -157q21 -91 21 -156q0 -104 -75.5 -198.5t-219.5 -145.5q141 -52 218 -148t77 -201q0 -66 -21 -156 q-24 -105 -24 -158q0 -82 55 -145t171 -92v-35q-98 14 -170 56q-97 56 -151.5 144t-54.5 189q0 67 21 156q25 104 25 153q0 76 -61.5 138t-166.5 76z" />
<glyph unicode="|" horiz-adv-x="1229" d="M543 -446v1913h146v-1913h-146z" />
<glyph unicode="}" horiz-adv-x="573" d="M-27 -407q116 29 171 91.5t55 146.5q0 52 -24 157q-22 90 -22 156q0 104 76 198.5t220 145.5q-141 52 -218.5 148t-77.5 201q0 65 22 156q24 105 24 158q0 82 -55 145t-171 91v35q97 -13 170 -55q97 -56 151.5 -144t54.5 -189q0 -68 -21 -156q-25 -104 -25 -153 q0 -76 61.5 -138t166.5 -76v-41q-105 -14 -166.5 -75.5t-61.5 -139.5q0 -48 25 -152q21 -89 21 -157q0 -102 -58 -192t-155 -144q-69 -39 -163 -52v35z" />
<glyph unicode="~" horiz-adv-x="1229" d="M160 597q40 80 80.5 122.5t86.5 64.5t93 22q35 0 75 -13t146 -67q96 -49 120.5 -58.5t40.5 -9.5q47 0 88 41q28 28 91 142l87 -97q-31 -78 -70.5 -122.5t-87.5 -67.5t-102 -23q-40 0 -81 15q-20 7 -122 59l-133 64q-25 10 -51 10q-48 0 -77.5 -34t-88.5 -146z" />
<glyph unicode="&#xa1;" horiz-adv-x="614" d="M182 850q0 51 37 88t88 37q52 0 89 -36.5t37 -88.5t-37 -88.5t-89 -36.5t-88.5 36.5t-36.5 88.5zM184 -340q0 19 5 61l79 902h83l76 -894q4 -38 4 -48q0 -73 -32 -107.5t-94 -34.5q-54 0 -87.5 33t-33.5 88z" />
<glyph unicode="&#xa2;" d="M207 710q0 131 51.5 231t151.5 164t224 75v215h96v-215q120 -16 198.5 -56.5t116.5 -92t38 -96.5q0 -38 -27 -64.5t-66 -26.5q-37 0 -62.5 20.5t-49.5 84.5q-24 66 -59.5 98t-88.5 42v-749q89 16 151.5 52.5t151.5 132.5l65 -55q-92 -115 -182 -170t-186 -65v-235h-96 v235q-124 11 -222 74t-151.5 166.5t-53.5 234.5zM395 712q0 -103 33 -180.5t99 -130.5q40 -34 107 -55v739q-56 -11 -97 -39t-75 -75t-50.5 -110t-16.5 -149z" />
<glyph unicode="&#xa3;" d="M20 210q0 64 32 119t88 85.5t124 30.5q128 0 234 -109q-7 62 -24 111q-26 82 -82 202q-24 54 -32 77h-303v97h265q-45 104 -45 206q0 103 56.5 191.5t167 143.5t242.5 55q124 0 215 -47.5t144.5 -137t65.5 -228.5l-97 -14q-24 129 -62.5 188.5t-103.5 94.5t-146 35 q-123 0 -205.5 -77t-82.5 -184t53 -226h366v-97h-334q38 -114 51.5 -189t13.5 -147q0 -58 -13 -116q214 -116 341 -116q55 0 104 33.5t83.5 109.5t45.5 189l93 -7q1 -150 -52.5 -276.5t-124.5 -178.5t-165 -52q-78 0 -161.5 39t-199.5 144q-48 -92 -119 -134 q-82 -49 -177 -49q-75 0 -134 31t-90.5 84.5t-31.5 118.5zM128 211q0 -60 44 -101.5t112 -41.5q66 0 125 40.5t89 111.5q-16 13 -49 43q-44 40 -62 50q-32 18 -62 27t-56 9q-56 0 -98.5 -41.5t-42.5 -96.5z" />
<glyph unicode="&#xa4;" horiz-adv-x="1229" d="M126 313l129 128q-91 141 -91 276q0 138 91 264l-129 128l89 91l129 -129q61 46 128 69t140 23q148 0 273 -92l129 129l88 -91l-128 -128q92 -130 92 -275q0 -147 -92 -265l128 -128l-88 -88l-129 127q-64 -46 -133 -69.5t-142 -23.5q-146 0 -266 93l-128 -127zM290 710 q0 -134 95.5 -229.5t229.5 -95.5q135 0 230 95.5t95 229.5q0 135 -95 230t-230 95q-134 0 -229.5 -95t-95.5 -230z" />
<glyph unicode="&#xa5;" d="M-15 1310v85h522v-85h-59q-54 0 -69.5 -10t-15.5 -33q0 -20 19 -54q5 -8 13 -23l272 -504l301 523q18 32 21.5 41.5t3.5 19.5q0 14 -7.5 23.5t-23.5 14.5q-10 2 -56 2h-52v85h431v-85q-57 1 -84.5 -7t-45 -24.5t-49.5 -69.5l-315 -524h374v-97h-432l-5 -9v-127h437v-97 h-437v-127q0 -77 12.5 -100t39.5 -33.5t126 -10.5v-84h-545v84h42q67 0 89.5 12t35.5 39q9 19 9 93v127h-431v97h431v90l-26 46h-405v97h350l-288 513q-44 79 -73.5 94.5t-109.5 17.5z" />
<glyph unicode="&#xa6;" horiz-adv-x="1229" d="M543 387l146 82v-915h-146v833zM543 551v916h146v-834z" />
<glyph unicode="&#xa7;" horiz-adv-x="1065" d="M66 -74q0 44 29.5 78t64.5 34q26 0 49.5 -14t33 -32t15.5 -69q7 -61 23 -91q26 -51 91.5 -84t159.5 -33q93 0 163 30.5t103 81t33 111.5q0 41 -18 75t-54 61t-94 48q-19 7 -111 29q-125 30 -177 47q-105 36 -167 80t-95 106t-33 128q0 75 45.5 150t162.5 163 q-97 48 -145.5 115.5t-48.5 153.5q0 135 118.5 230t323.5 95q207 0 328 -94q95 -74 95 -172q0 -52 -27.5 -81t-72.5 -29q-24 0 -44 12t-32.5 34.5t-22.5 72.5q-10 53 -23.5 75.5t-42 43t-71 32t-93.5 11.5q-123 0 -194.5 -56t-71.5 -137q0 -58 31 -97t111 -73 q32 -14 200 -62q153 -44 228 -93.5t111 -113.5t36 -140q0 -73 -41.5 -155t-120.5 -157q79 -35 122 -94q56 -76 56 -169q0 -92 -55.5 -174.5t-161.5 -131.5t-253 -49q-144 0 -247.5 43t-159.5 118t-56 143zM236 568q0 -51 33 -101.5t101.5 -83.5t228.5 -71q106 -24 144 -38 q45 45 70 100.5t25 107.5q0 59 -26.5 106t-81.5 81.5t-190.5 73.5t-169.5 50q-72 -62 -103 -119.5t-31 -105.5z" />
<glyph unicode="&#xa8;" horiz-adv-x="860" d="M141 1255q0 51 35.5 87t86.5 36q50 0 86 -36t36 -87q0 -50 -36 -86t-86 -36t-86 36t-36 86zM475 1255q0 51 35.5 87t86.5 36q50 0 86 -36t36 -87q0 -50 -36 -86t-86 -36q-51 0 -86.5 36t-35.5 86z" />
<glyph unicode="&#xa9;" horiz-adv-x="1516" d="M89 678q0 190 95 354.5t259.5 259.5t354.5 95t355 -95t260 -259.5t95 -354.5t-95 -354.5t-260 -259.5t-355 -95t-354.5 95t-259.5 259.5t-95 354.5zM151 678q0 -174 86.5 -324t237 -237t323.5 -87q174 0 324.5 87t237 237t86.5 324t-86.5 324t-237 237t-324.5 87 q-173 0 -323.5 -87t-237 -237t-86.5 -324zM340 672q0 125 64 232t177.5 169t256.5 62q46 0 76.5 -6t108.5 -32q25 -8 37 -8q17 0 27.5 9t21.5 36h40l20 -280h-39q-26 84 -66 132t-102 76t-135 28q-94 0 -167.5 -46.5t-108.5 -122.5q-45 -96 -45 -220q0 -141 39 -229 t116 -136t176 -48q63 0 121.5 19t103 51.5t87.5 91.5l37 -19q-62 -91 -141 -138q-106 -65 -242 -65q-132 0 -237 58.5t-165.5 161.5t-60.5 224z" />
<glyph unicode="&#xaa;" horiz-adv-x="860" d="M84 960q0 76 83 128.5t381 83.5v59q0 61 -33.5 89.5t-108.5 28.5q-40 0 -67 -10t-40 -26t-24 -54q-14 -48 -30.5 -63t-46.5 -15q-33 0 -52 18t-19 47q0 65 78.5 119t215.5 54q94 0 154.5 -27t87.5 -69q21 -33 21 -115v-230q0 -53 6 -72t19.5 -28.5t37.5 -9.5q27 0 83 18 v-67q-63 -17 -111 -17t-74 10q-38 15 -63 39q-16 15 -24 43q-65 -46 -130 -69t-130 -23q-97 0 -155.5 47.5t-58.5 110.5zM227 971q0 -37 28.5 -62t72.5 -25q39 0 90 18t130 68v136q-155 -22 -189 -30q-75 -18 -103.5 -45.5t-28.5 -59.5z" />
<glyph unicode="&#xab;" horiz-adv-x="737" d="M90 496l185 355l76 -36l-107 -319l107 -311l-76 -38zM336 496l184 355l77 -36l-107 -319l107 -311l-77 -38z" />
<glyph unicode="&#xac;" horiz-adv-x="1229" d="M127 601v117h975v-737h-117v620h-858z" />
<glyph unicode="&#xad;" horiz-adv-x="819" d="M112 447v124h594v-124h-594z" />
<glyph unicode="&#xae;" horiz-adv-x="1516" d="M89 678q0 190 95 354.5t259.5 259.5t354.5 95t355 -95t260 -259.5t95 -354.5t-95 -354.5t-260 -259.5t-355 -95t-354.5 95t-259.5 259.5t-95 354.5zM151 678q0 -174 86.5 -324t237 -237t323.5 -87q174 0 324.5 87t237 237t86.5 324t-86.5 324t-237 237t-324.5 87 q-173 0 -323.5 -87t-237 -237t-86.5 -324zM394 249v33q49 0 70.5 13t30.5 41q3 12 3 84v523q0 71 -2 82q-6 26 -25 39.5t-65 13.5v36h386q142 0 219.5 -64t77.5 -160q0 -83 -56 -138.5t-166 -83.5l209 -298q36 -51 66 -71q19 -14 55 -17v-33h-184l-294 405h-76v-309 q7 -34 30 -48.5t88 -14.5v-33h-367zM643 697q113 0 168.5 21t86 64t30.5 97q0 81 -56.5 136t-144.5 55q-38 0 -84 -16v-357z" />
<glyph unicode="&#xaf;" horiz-adv-x="1024" d="M-12 1494v102h1048v-102h-1048z" />
<glyph unicode="&#xb0;" horiz-adv-x="819" d="M136 1145q0 114 80 194t193 80q114 0 194 -80t80 -194q0 -113 -80 -193t-194 -80q-113 0 -193 80t-80 193zM232 1145q0 -72 52 -123.5t125 -51.5q74 0 126 51.5t52 123.5q0 73 -52 124t-126 51q-73 0 -125 -51t-52 -124z" />
<glyph unicode="&#xb1;" horiz-adv-x="1124" d="M75 128v123h975v-123h-975zM75 752v123h426v425h123v-425h426v-123h-426v-426h-123v426h-426z" />
<glyph unicode="&#xb2;" horiz-adv-x="762" d="M54 681v51l102 67q173 112 249.5 178t106.5 122q21 40 21 87q0 71 -48.5 115.5t-131.5 44.5q-91 0 -146 -49.5t-55 -120.5q0 -15 3 -50l-80 -9q-6 43 -6 67q0 59 37 114t108.5 88t164.5 33q135 0 213 -64.5t78 -160.5q0 -58 -28.5 -113t-94.5 -106t-317 -204h278 q48 0 60.5 5t19 17t17.5 67h75l-43 -205h-59l-7 26h-517z" />
<glyph unicode="&#xb3;" horiz-adv-x="762" d="M52 843q0 23 18.5 39t48.5 16q28 0 46.5 -14t31.5 -52q36 -103 159 -103q86 0 138.5 47.5t52.5 118.5q0 32 -12.5 57.5t-39 47.5t-55.5 29q-47 12 -100 12h-67v62h47q102 0 146.5 33t44.5 89q0 52 -40.5 85.5t-113.5 33.5q-49 0 -87.5 -17t-60.5 -45t-33 -80l-80 10 q8 54 26 86q31 52 97 86.5t159 34.5q127 0 198.5 -54.5t71.5 -130.5q0 -46 -34 -84q-47 -50 -118 -73q88 -17 138.5 -70.5t50.5 -119.5q0 -83 -87.5 -151t-231.5 -68q-139 0 -226.5 60t-87.5 115z" />
<glyph unicode="&#xb4;" horiz-adv-x="696" d="M140 1170v35l185 136q95 70 159 70q30 0 50.5 -21.5t20.5 -53.5q0 -39 -28 -64.5t-101 -41.5z" />
<glyph unicode="&#xb5;" horiz-adv-x="1180" d="M117 -254q0 38 21 153q36 190 50.5 356.5t14.5 398.5v311h171v-623q0 -99 18.5 -148t56.5 -75.5t85 -26.5q52 0 117 40t142 119v714h167v-732q0 -72 10 -91q15 -28 51 -28q29 0 83 24v-54q-90 -65 -130.5 -83t-65.5 -18q-31 0 -57.5 18.5t-40 52.5t-17.5 106 q-116 -121 -180.5 -156t-132.5 -35q-53 0 -100.5 20t-77.5 53t-60 106q-3 -39 -3 -59q0 -82 39 -241q22 -89 22 -116q0 -41 -26 -69t-64 -28q-42 0 -67.5 29t-25.5 82z" />
<glyph unicode="&#xb6;" horiz-adv-x="1229" d="M141 976q0 79 29 147.5t81.5 118.5t109.5 72.5t149 32.5q45 5 157 5h416v-72q-72 -6 -93.5 -18.5t-31.5 -41t-10 -115.5v-1549h-94v1706h-151v-1706h-95v1071q-21 -1 -32 -1q-147 0 -243 44t-144 121.5t-48 184.5z" />
<glyph unicode="&#xb7;" horiz-adv-x="533" d="M143 734q0 50 36 85.5t87 35.5t87 -35.5t36 -85.5q0 -51 -36 -86.5t-87 -35.5t-87 35.5t-36 86.5z" />
<glyph unicode="&#xb8;" horiz-adv-x="655" d="M134 -295q0 22 14.5 37t37.5 15t38 -10.5t26 -39.5q15 -34 25 -43q23 -18 54 -18q40 0 68 30.5t28 79.5q0 51 -30 78t-93 27q-41 0 -98 -20l51 159h62l-26 -87q41 3 49 3q56 0 104 -22q36 -16 56.5 -49.5t20.5 -79.5q0 -78 -51.5 -126.5t-138.5 -48.5t-150 43 q-47 31 -47 72z" />
<glyph unicode="&#xb9;" horiz-adv-x="762" d="M196 681v56h76q40 0 50.5 5t16.5 18t6 48v480h-149v56q57 7 137 28q49 13 56 23.5t18 10.5h62v-598q0 -50 10.5 -60.5t59.5 -10.5h70v-56h-413z" />
<glyph unicode="&#xba;" horiz-adv-x="860" d="M98 1108q0 136 92 223.5t243 87.5q156 0 242 -89t86 -222q0 -130 -86.5 -220t-251.5 -90q-162 0 -243.5 92.5t-81.5 217.5zM250 1104q0 -119 48.5 -179t129.5 -60q91 0 137.5 69.5t46.5 174.5q0 76 -24 130.5t-65.5 81t-94.5 26.5q-76 0 -127 -63.5t-51 -179.5z" />
<glyph unicode="&#xbb;" horiz-adv-x="737" d="M141 183l107 319l-107 311l76 38l185 -349l-185 -355zM387 183l107 319l-107 311l76 38l185 -349l-185 -355z" />
<glyph unicode="&#xbc;" horiz-adv-x="1905" d="M243 681v56h76q40 0 50.5 5t16.5 18t6 48v480h-149v56q57 7 137 28q49 13 56 23.5t18 10.5h62v-598q0 -50 10.5 -60.5t59.5 -10.5h70v-56h-413zM452 -24l928 1443h121l-930 -1443h-119zM1140 234v98l393 393h118v-414h155v-77h-155v-234h-123v234h-388zM1225 311h303v304 z" />
<glyph unicode="&#xbd;" horiz-adv-x="1905" d="M243 681v56h76q40 0 50.5 5t16.5 18t6 48v480h-149v56q57 7 137 28q49 13 56 23.5t18 10.5h62v-598q0 -50 10.5 -60.5t59.5 -10.5h70v-56h-413zM428 -24l928 1443h121l-930 -1443h-119zM1150 1v51l102 67q173 112 249.5 178t106.5 122q21 40 21 87q0 71 -48.5 115.5 t-131.5 44.5q-91 0 -146 -49.5t-55 -120.5q0 -15 3 -50l-80 -9q-6 43 -6 67q0 59 37 114t108.5 88t164.5 33q135 0 213 -64.5t78 -160.5q0 -58 -28.5 -113t-94.5 -106t-317 -204h278q48 0 60.5 5t19 17t17.5 67h75l-43 -205h-59l-7 26h-517z" />
<glyph unicode="&#xbe;" horiz-adv-x="1905" d="M100 843q0 23 18.5 39t48.5 16q28 0 46.5 -14t31.5 -52q36 -103 159 -103q86 0 138.5 47.5t52.5 118.5q0 32 -12.5 57.5t-39 47.5t-55.5 29q-47 12 -100 12h-67v62h47q102 0 146.5 33t44.5 89q0 52 -40.5 85.5t-113.5 33.5q-49 0 -87.5 -17t-60.5 -45t-33 -80l-80 10 q8 54 26 86q31 52 97 86.5t159 34.5q127 0 198.5 -54.5t71.5 -130.5q0 -46 -34 -84q-47 -50 -118 -73q88 -17 138.5 -70.5t50.5 -119.5q0 -83 -87.5 -151t-231.5 -68q-139 0 -226.5 60t-87.5 115zM477 -24l928 1443h121l-930 -1443h-119zM1141 234v98l393 393h118v-414h155 v-77h-155v-234h-123v234h-388zM1226 311h303v304z" />
<glyph unicode="&#xbf;" horiz-adv-x="1106" d="M74 -15q0 198 156.5 307t416.5 109v222h105v-355q-200 1 -297.5 -33.5t-149 -107t-51.5 -162.5q0 -82 46 -162t120.5 -124t159.5 -44q68 0 117.5 26t91.5 87t60 75q35 27 70 27q24 0 47.5 -12.5t32.5 -28.5q13 -24 13 -48q0 -79 -92 -139q-128 -83 -308 -83 q-161 0 -285.5 60.5t-188.5 160.5t-64 225zM575 850q0 51 37 88t89 37t88.5 -36.5t36.5 -88.5t-36.5 -88.5t-88.5 -36.5t-89 36.5t-37 88.5z" />
<glyph unicode="&#xc0;" horiz-adv-x="1393" d="M3 0v84q58 0 83.5 11.5t44.5 37t50 107.5l435 1155h165l433 -1166q32 -88 64.5 -116.5t87.5 -28.5h22v-84h-497v84q24 2 47 2q48 0 63 10q29 19 29 48q0 21 -28 103l-92 270h-506l-108 -302q-17 -47 -17 -65q0 -20 10.5 -35t28.5 -22.5t58 -7.5q27 0 44 -1v-84h-417z M427 1665q0 34 20.5 55.5t52.5 21.5q64 0 159 -70l185 -136v-35l-286 60q-75 16 -103 41.5t-28 62.5zM441 615h431l-216 600z" />
<glyph unicode="&#xc1;" horiz-adv-x="1393" d="M3 0v84q58 0 83.5 11.5t44.5 37t50 107.5l435 1155h165l433 -1166q32 -88 64.5 -116.5t87.5 -28.5h22v-84h-497v84q24 2 47 2q48 0 63 10q29 19 29 48q0 21 -28 103l-92 270h-506l-108 -302q-17 -47 -17 -65q0 -20 10.5 -35t28.5 -22.5t58 -7.5q27 0 44 -1v-84h-417z M441 615h431l-216 600zM549 1501v35l185 136q95 70 159 70q30 0 50.5 -21.5t20.5 -53.5q0 -39 -28 -64.5t-101 -41.5z" />
<glyph unicode="&#xc2;" horiz-adv-x="1393" d="M3 0v84q58 0 83.5 11.5t44.5 37t50 107.5l435 1155h165l433 -1166q32 -88 64.5 -116.5t87.5 -28.5h22v-84h-497v84q24 2 47 2q48 0 63 10q29 19 29 48q0 21 -28 103l-92 270h-506l-108 -302q-17 -47 -17 -65q0 -20 10.5 -35t28.5 -22.5t58 -7.5q27 0 44 -1v-84h-417z M405 1545l290 191l291 -191l-27 -51l-264 93l-263 -93zM441 615h431l-216 600z" />
<glyph unicode="&#xc3;" horiz-adv-x="1393" d="M3 0v84q58 0 83.5 11.5t44.5 37t50 107.5l435 1155h165l433 -1166q32 -88 64.5 -116.5t87.5 -28.5h22v-84h-497v84q24 2 47 2q48 0 63 10q29 19 29 48q0 21 -28 103l-92 270h-506l-108 -302q-17 -47 -17 -65q0 -20 10.5 -35t28.5 -22.5t58 -7.5q27 0 44 -1v-84h-417z M381 1546q19 63 68.5 101.5t108.5 38.5q60 0 194 -38q66 -18 101 -18q64 0 98 45l60 -18q-17 -66 -74.5 -110t-128.5 -44q-23 0 -42 4t-90 26q-109 34 -155 34q-44 0 -81 -41zM441 615h431l-216 600z" />
<glyph unicode="&#xc4;" horiz-adv-x="1393" d="M3 0v84q58 0 83.5 11.5t44.5 37t50 107.5l435 1155h165l433 -1166q32 -88 64.5 -116.5t87.5 -28.5h22v-84h-497v84q24 2 47 2q48 0 63 10q29 19 29 48q0 21 -28 103l-92 270h-506l-108 -302q-17 -47 -17 -65q0 -20 10.5 -35t28.5 -22.5t58 -7.5q27 0 44 -1v-84h-417z M407 1586q0 51 35.5 87t86.5 36q50 0 86 -36t36 -87q0 -50 -36 -86t-86 -36t-86 36t-36 86zM441 615h431l-216 600zM741 1586q0 51 35.5 87t86.5 36q50 0 86 -36t36 -87q0 -50 -36 -86t-86 -36q-51 0 -86.5 36t-35.5 86z" />
<glyph unicode="&#xc5;" horiz-adv-x="1393" d="M3 0v84q58 0 83.5 11.5t44.5 37t50 107.5l435 1155h165l433 -1166q32 -88 64.5 -116.5t87.5 -28.5h22v-84h-497v84q24 2 47 2q48 0 63 10q29 19 29 48q0 21 -28 103l-92 270h-506l-108 -302q-17 -47 -17 -65q0 -20 10.5 -35t28.5 -22.5t58 -7.5q27 0 44 -1v-84h-417z M441 615h431l-216 600zM508 1642q0 78 55 133.5t133 55.5q79 0 134 -55.5t55 -133.5q0 -79 -55.5 -134.5t-133.5 -55.5t-133 55.5t-55 134.5zM578 1642q0 -50 34.5 -85t83.5 -35t84 35t35 85q0 49 -35 84t-84 35t-83.5 -35t-34.5 -84z" />
<glyph unicode="&#xc6;" horiz-adv-x="2580" d="M2 0v84q55 1 82 10.5t48 28.5q34 32 67 82l641 983q34 52 34 79q0 21 -18 32t-71 11h-47v85h1600l131 -363l-88 -31q-67 161 -150 221q-94 68 -290 68h-428v-515h204q96 0 141 21.5t71.5 65.5t26.5 109v61h96v-614h-96v57q0 80 -24 121t-67.5 61t-147.5 20h-204v-490 l1 -24q0 -24 4 -31q8 -13 22 -19q10 -4 47 -4h323q143 0 236.5 35.5t162.5 106.5t136 218l91 -30l-155 -439h-1230v84h55q71 0 100 33q24 27 24 97v463h-665l-280 -451l-8 -11q-35 -46 -35 -82q0 -23 19.5 -36t76.5 -13h43v-84h-479zM726 775h604v515h-283z" />
<glyph unicode="&#xc7;" horiz-adv-x="1515" d="M111 693q0 203 93 367.5t256.5 261.5t352.5 97q101 0 187.5 -27.5t175.5 -88.5l32 92h72l127 -465l-93 -26q-75 161 -114 216q-64 89 -159.5 141t-210.5 52q-135 0 -248.5 -72.5t-184 -212.5t-70.5 -315q0 -180 71.5 -321t193.5 -217t263 -76q133 0 272 76t241 213 l80 -55q-62 -92 -134 -156q-114 -103 -237 -152t-270 -49q-325 0 -528 241q-168 200 -168 476zM565 -295q0 22 14.5 37t37.5 15t38 -10.5t26 -39.5q15 -34 25 -43q23 -18 54 -18q40 0 68 30.5t28 79.5q0 51 -30 78t-93 27q-41 0 -98 -20l51 159h62l-26 -87q41 3 49 3 q56 0 104 -22q36 -16 56.5 -49.5t20.5 -79.5q0 -78 -51.5 -126.5t-138.5 -48.5t-150 43q-47 31 -47 72z" />
<glyph unicode="&#xc8;" horiz-adv-x="1475" d="M98 0v84h40q70 0 87 9q26 13 40 42q10 20 10 87v960q0 65 -13 87t-45 34q-17 7 -119 7v85h1134l131 -367l-88 -33q-33 90 -72 141.5t-93.5 87.5t-110 48t-200.5 12h-338v-511h168q93 0 140.5 31.5t65.5 78.5q14 35 14 122v23h98v-612h-98v53q0 70 -10.5 101t-38.5 58.5 t-60.5 37.5t-110.5 10h-168v-454q0 -71 6.5 -86.5t21.5 -22.5t82 -7h209q175 0 273.5 42t173.5 129q59 68 113 192l91 -32l-156 -437h-1177zM528 1665q0 34 20.5 55.5t52.5 21.5q64 0 159 -70l185 -136v-35l-286 60q-75 16 -103 41.5t-28 62.5z" />
<glyph unicode="&#xc9;" horiz-adv-x="1475" d="M98 0v84h40q70 0 87 9q26 13 40 42q10 20 10 87v960q0 65 -13 87t-45 34q-17 7 -119 7v85h1134l131 -367l-88 -33q-33 90 -72 141.5t-93.5 87.5t-110 48t-200.5 12h-338v-511h168q93 0 140.5 31.5t65.5 78.5q14 35 14 122v23h98v-612h-98v53q0 70 -10.5 101t-38.5 58.5 t-60.5 37.5t-110.5 10h-168v-454q0 -71 6.5 -86.5t21.5 -22.5t82 -7h209q175 0 273.5 42t173.5 129q59 68 113 192l91 -32l-156 -437h-1177zM529 1501v35l185 136q95 70 159 70q30 0 50.5 -21.5t20.5 -53.5q0 -39 -28 -64.5t-101 -41.5z" />
<glyph unicode="&#xca;" horiz-adv-x="1475" d="M98 0v84h40q70 0 87 9q26 13 40 42q10 20 10 87v960q0 65 -13 87t-45 34q-17 7 -119 7v85h1134l131 -367l-88 -33q-33 90 -72 141.5t-93.5 87.5t-110 48t-200.5 12h-338v-511h168q93 0 140.5 31.5t65.5 78.5q14 35 14 122v23h98v-612h-98v53q0 70 -10.5 101t-38.5 58.5 t-60.5 37.5t-110.5 10h-168v-454q0 -71 6.5 -86.5t21.5 -22.5t82 -7h209q175 0 273.5 42t173.5 129q59 68 113 192l91 -32l-156 -437h-1177zM446 1545l290 191l291 -191l-27 -51l-264 93l-263 -93z" />
<glyph unicode="&#xcb;" horiz-adv-x="1475" d="M98 0v84h40q70 0 87 9q26 13 40 42q10 20 10 87v960q0 65 -13 87t-45 34q-17 7 -119 7v85h1134l131 -367l-88 -33q-33 90 -72 141.5t-93.5 87.5t-110 48t-200.5 12h-338v-511h168q93 0 140.5 31.5t65.5 78.5q14 35 14 122v23h98v-612h-98v53q0 70 -10.5 101t-38.5 58.5 t-60.5 37.5t-110.5 10h-168v-454q0 -71 6.5 -86.5t21.5 -22.5t82 -7h209q175 0 273.5 42t173.5 129q59 68 113 192l91 -32l-156 -437h-1177zM448 1586q0 51 35.5 87t86.5 36q50 0 86 -36t36 -87q0 -50 -36 -86t-86 -36t-86 36t-36 86zM782 1586q0 51 35.5 87t86.5 36 q50 0 86 -36t36 -87q0 -50 -36 -86t-86 -36q-51 0 -86.5 36t-35.5 86z" />
<glyph unicode="&#xcc;" horiz-adv-x="696" d="M79 1665q0 34 20.5 55.5t52.5 21.5q64 0 159 -70l185 -136v-35l-286 60q-75 16 -103 41.5t-28 62.5zM81 0v84h44q59 0 83.5 13.5t35.5 39t11 98.5v920q0 77 -11 103.5t-35.5 39t-83.5 12.5h-44v85h534v-85h-41q-58 0 -84 -16t-38 -45.5t-12 -114.5v-899q0 -68 13 -96.5 t36.5 -41.5t84.5 -13h41v-84h-534z" />
<glyph unicode="&#xcd;" horiz-adv-x="696" d="M81 0v84h44q59 0 83.5 13.5t35.5 39t11 98.5v920q0 77 -11 103.5t-35.5 39t-83.5 12.5h-44v85h534v-85h-41q-58 0 -84 -16t-38 -45.5t-12 -114.5v-899q0 -68 13 -96.5t36.5 -41.5t84.5 -13h41v-84h-534zM201 1501v35l185 136q95 70 159 70q30 0 50.5 -21.5t20.5 -53.5 q0 -39 -28 -64.5t-101 -41.5z" />
<glyph unicode="&#xce;" horiz-adv-x="696" d="M57 1545l290 191l291 -191l-27 -51l-264 93l-263 -93zM81 0v84h44q59 0 83.5 13.5t35.5 39t11 98.5v920q0 77 -11 103.5t-35.5 39t-83.5 12.5h-44v85h534v-85h-41q-58 0 -84 -16t-38 -45.5t-12 -114.5v-899q0 -68 13 -96.5t36.5 -41.5t84.5 -13h41v-84h-534z" />
<glyph unicode="&#xcf;" horiz-adv-x="696" d="M59 1586q0 51 35.5 87t86.5 36q50 0 86 -36t36 -87q0 -50 -36 -86t-86 -36t-86 36t-36 86zM81 0v84h44q59 0 83.5 13.5t35.5 39t11 98.5v920q0 77 -11 103.5t-35.5 39t-83.5 12.5h-44v85h534v-85h-41q-58 0 -84 -16t-38 -45.5t-12 -114.5v-899q0 -68 13 -96.5t36.5 -41.5 t84.5 -13h41v-84h-534zM393 1586q0 51 35.5 87t86.5 36q50 0 86 -36t36 -87q0 -50 -36 -86t-86 -36q-51 0 -86.5 36t-35.5 86z" />
<glyph unicode="&#xd0;" horiz-adv-x="1638" d="M97 0v84h58l19 -1q37 0 60.5 15t33.5 40q7 19 7 88v423h-178v97h178v413q0 79 -10 102q-14 31 -45 43q-18 6 -123 6v85h498q342 0 477 -43q199 -63 323 -235q137 -190 137 -437q0 -168 -67.5 -312.5t-177.5 -232.5q-91 -74 -219 -104.5t-258 -30.5h-713zM461 108h302 q45 0 149.5 16t149.5 39q66 34 128 109.5t95.5 181t33.5 241.5q0 135 -33.5 234t-101 178t-150 120.5t-184.5 52.5q-55 5 -184 5h-205v-539h429v-97h-429v-541z" />
<glyph unicode="&#xd1;" horiz-adv-x="1515" d="M88 0v84h25q72 0 97.5 14t39.5 48t14 115v884q0 83 -4 101q-9 34 -34.5 49t-101.5 15h-36v85h428l635 -1046v796q0 71 -14 102t-42 47t-83 16h-36v85h467v-85h-25q-62 0 -84 -10q-31 -14 -46.5 -51t-15.5 -104v-1145h-121l-765 1257v-996q0 -83 5 -101q7 -23 25.5 -42 t43.5 -26t101 -8v-84h-473zM443 1546q19 63 68.5 101.5t108.5 38.5q60 0 194 -38q66 -18 101 -18q64 0 98 45l60 -18q-17 -66 -74.5 -110t-128.5 -44q-23 0 -42 4t-90 26q-109 34 -155 34q-44 0 -81 -41z" />
<glyph unicode="&#xd2;" horiz-adv-x="1638" d="M107 696q0 206 93 369.5t264 258.5t375 95q191 0 345 -92q167 -99 256.5 -257t89.5 -366q0 -322 -200 -525t-510 -203q-346 0 -548 244q-165 199 -165 476zM324 686q0 -195 66.5 -330.5t178.5 -207.5t252 -72q139 0 246 70.5t177 222t70 336.5q0 188 -70 344 q-60 134 -159 198t-246 64q-156 0 -268 -71.5t-179.5 -210.5t-67.5 -343zM550 1665q0 34 20.5 55.5t52.5 21.5q64 0 159 -70l185 -136v-35l-286 60q-75 16 -103 41.5t-28 62.5z" />
<glyph unicode="&#xd3;" horiz-adv-x="1638" d="M107 696q0 206 93 369.5t264 258.5t375 95q191 0 345 -92q167 -99 256.5 -257t89.5 -366q0 -322 -200 -525t-510 -203q-346 0 -548 244q-165 199 -165 476zM324 686q0 -195 66.5 -330.5t178.5 -207.5t252 -72q139 0 246 70.5t177 222t70 336.5q0 188 -70 344 q-60 134 -159 198t-246 64q-156 0 -268 -71.5t-179.5 -210.5t-67.5 -343zM671 1501v35l185 136q95 70 159 70q30 0 50.5 -21.5t20.5 -53.5q0 -39 -28 -64.5t-101 -41.5z" />
<glyph unicode="&#xd4;" horiz-adv-x="1638" d="M107 696q0 206 93 369.5t264 258.5t375 95q191 0 345 -92q167 -99 256.5 -257t89.5 -366q0 -322 -200 -525t-510 -203q-346 0 -548 244q-165 199 -165 476zM324 686q0 -195 66.5 -330.5t178.5 -207.5t252 -72q139 0 246 70.5t177 222t70 336.5q0 188 -70 344 q-60 134 -159 198t-246 64q-156 0 -268 -71.5t-179.5 -210.5t-67.5 -343zM528 1545l290 191l291 -191l-27 -51l-264 93l-263 -93z" />
<glyph unicode="&#xd5;" horiz-adv-x="1638" d="M107 696q0 206 93 369.5t264 258.5t375 95q191 0 345 -92q167 -99 256.5 -257t89.5 -366q0 -322 -200 -525t-510 -203q-346 0 -548 244q-165 199 -165 476zM324 686q0 -195 66.5 -330.5t178.5 -207.5t252 -72q139 0 246 70.5t177 222t70 336.5q0 188 -70 344 q-60 134 -159 198t-246 64q-156 0 -268 -71.5t-179.5 -210.5t-67.5 -343zM504 1546q19 63 68.5 101.5t108.5 38.5q60 0 194 -38q66 -18 101 -18q64 0 98 45l60 -18q-17 -66 -74.5 -110t-128.5 -44q-23 0 -42 4t-90 26q-109 34 -155 34q-44 0 -81 -41z" />
<glyph unicode="&#xd6;" horiz-adv-x="1638" d="M107 696q0 206 93 369.5t264 258.5t375 95q191 0 345 -92q167 -99 256.5 -257t89.5 -366q0 -322 -200 -525t-510 -203q-346 0 -548 244q-165 199 -165 476zM324 686q0 -195 66.5 -330.5t178.5 -207.5t252 -72q139 0 246 70.5t177 222t70 336.5q0 188 -70 344 q-60 134 -159 198t-246 64q-156 0 -268 -71.5t-179.5 -210.5t-67.5 -343zM530 1586q0 51 35.5 87t86.5 36q50 0 86 -36t36 -87q0 -50 -36 -86t-86 -36t-86 36t-36 86zM864 1586q0 51 35.5 87t86.5 36q50 0 86 -36t36 -87q0 -50 -36 -86t-86 -36q-51 0 -86.5 36t-35.5 86z " />
<glyph unicode="&#xd7;" horiz-adv-x="1229" d="M194 364l334 333l-334 334l87 87l333 -334l334 334l87 -87l-334 -334l334 -333l-87 -87l-334 333l-333 -333z" />
<glyph unicode="&#xd8;" horiz-adv-x="1638" d="M107 -24l192 214q-192 208 -192 506q0 206 93 369.5t263.5 258.5t373.5 95q243 0 430 -149l133 149h130l-192 -215q99 -104 145.5 -224t46.5 -276q0 -322 -200 -525t-510 -203q-265 0 -450 148l-133 -148h-130zM324 688q0 -227 88 -372l763 851q-59 73 -141.5 108.5 t-196.5 35.5q-155 0 -266.5 -71.5t-179 -210.5t-67.5 -341zM470 235q138 -159 351 -159q139 0 246.5 70.5t177 222t69.5 338.5q0 207 -86 374z" />
<glyph unicode="&#xd9;" horiz-adv-x="1597" d="M78 1310v85h539v-85h-36q-66 0 -94 -13q-22 -10 -33 -34t-11 -96v-628q0 -168 40.5 -249t135 -136t207.5 -55q114 0 216 59t143 140t41 256v604q0 66 -13 95t-39.5 43t-82.5 14h-39v85h467v-85h-32q-79 0 -108.5 -30t-29.5 -113v-643q0 -176 -66 -293.5t-192 -186 t-293 -68.5q-158 0 -289 70t-192.5 174.5t-61.5 262.5v684q0 66 -12 92.5t-35 38.5t-80 12h-50zM530 1665q0 34 20.5 55.5t52.5 21.5q64 0 159 -70l185 -136v-35l-286 60q-75 16 -103 41.5t-28 62.5z" />
<glyph unicode="&#xda;" horiz-adv-x="1597" d="M78 1310v85h539v-85h-36q-66 0 -94 -13q-22 -10 -33 -34t-11 -96v-628q0 -168 40.5 -249t135 -136t207.5 -55q114 0 216 59t143 140t41 256v604q0 66 -13 95t-39.5 43t-82.5 14h-39v85h467v-85h-32q-79 0 -108.5 -30t-29.5 -113v-643q0 -176 -66 -293.5t-192 -186 t-293 -68.5q-158 0 -289 70t-192.5 174.5t-61.5 262.5v684q0 66 -12 92.5t-35 38.5t-80 12h-50zM651 1501v35l185 136q95 70 159 70q30 0 50.5 -21.5t20.5 -53.5q0 -39 -28 -64.5t-101 -41.5z" />
<glyph unicode="&#xdb;" horiz-adv-x="1597" d="M78 1310v85h539v-85h-36q-66 0 -94 -13q-22 -10 -33 -34t-11 -96v-628q0 -168 40.5 -249t135 -136t207.5 -55q114 0 216 59t143 140t41 256v604q0 66 -13 95t-39.5 43t-82.5 14h-39v85h467v-85h-32q-79 0 -108.5 -30t-29.5 -113v-643q0 -176 -66 -293.5t-192 -186 t-293 -68.5q-158 0 -289 70t-192.5 174.5t-61.5 262.5v684q0 66 -12 92.5t-35 38.5t-80 12h-50zM508 1545l290 191l291 -191l-27 -51l-264 93l-263 -93z" />
<glyph unicode="&#xdc;" horiz-adv-x="1597" d="M78 1310v85h539v-85h-36q-66 0 -94 -13q-22 -10 -33 -34t-11 -96v-628q0 -168 40.5 -249t135 -136t207.5 -55q114 0 216 59t143 140t41 256v604q0 66 -13 95t-39.5 43t-82.5 14h-39v85h467v-85h-32q-79 0 -108.5 -30t-29.5 -113v-643q0 -176 -66 -293.5t-192 -186 t-293 -68.5q-158 0 -289 70t-192.5 174.5t-61.5 262.5v684q0 66 -12 92.5t-35 38.5t-80 12h-50zM510 1586q0 51 35.5 87t86.5 36q50 0 86 -36t36 -87q0 -50 -36 -86t-86 -36t-86 36t-36 86zM844 1586q0 51 35.5 87t86.5 36q50 0 86 -36t36 -87q0 -50 -36 -86t-86 -36 q-51 0 -86.5 36t-35.5 86z" />
<glyph unicode="&#xdd;" horiz-adv-x="1311" d="M5 1310v85h522v-85h-59q-54 0 -69.5 -10t-15.5 -33q0 -20 19 -54q5 -8 13 -23l272 -504l301 523q18 32 21.5 41.5t3.5 19.5q0 14 -7.5 23.5t-23.5 14.5q-10 2 -56 2h-52v85h431v-85q-57 1 -84.5 -7t-45 -24.5t-49.5 -69.5l-378 -630v-351q0 -77 12.5 -100t39.5 -33.5 t126 -10.5v-84h-545v84h42q67 0 89.5 12t35.5 39q9 19 9 93v314l-369 656q-44 79 -73.5 94.5t-109.5 17.5zM508 1501v35l185 136q95 70 159 70q30 0 50.5 -21.5t20.5 -53.5q0 -39 -28 -64.5t-101 -41.5z" />
<glyph unicode="&#xde;" d="M92 0v84h33q69 0 94 11.5t36.5 36t11.5 92.5v954q0 66 -10.5 88.5t-35 33t-96.5 10.5h-33v85h540v-85h-29q-82 0 -111.5 -19.5t-29.5 -82.5l-1 -30l-4 -81h186q249 0 344 -30q120 -38 198 -131t78 -234q0 -122 -59 -209q-71 -106 -172.5 -150.5t-319.5 -44.5h-255v-61 q0 -80 9 -101q12 -29 33 -40.5t85 -11.5h48v-84h-540zM457 405h215q163 0 228.5 29t108.5 100.5t43 167.5q0 105 -50 175.5t-136 94.5q-60 18 -234 18h-175v-585z" />
<glyph unicode="&#xdf;" horiz-adv-x="1352" d="M71 0v84h56q52 0 71 12q24 14 36 43q9 21 9 96v629h-172v101h172v45q0 62 14.5 146t70.5 155.5t145.5 113.5t207.5 42q114 0 193 -39t124.5 -108.5t45.5 -147.5q0 -40 -15 -72q-11 -22 -32 -35t-78 -22q-126 -20 -165 -49q-39 -30 -39 -76q0 -47 42 -84t179 -101 t196 -114.5t90.5 -120t31.5 -142.5q0 -97 -56 -187.5t-155 -141.5t-221 -51q-100 0 -186 35.5t-125 85t-39 96.5q0 32 25.5 58t57.5 26q30 0 57.5 -18.5t55.5 -66.5q41 -69 81.5 -93.5t99.5 -24.5q101 0 177.5 72.5t76.5 164.5q0 64 -32 118t-98 98q-46 30 -151 77 q-74 33 -94 44q-54 32 -93.5 72.5t-54 74.5t-14.5 81q0 62 34 114t108.5 87.5t189.5 45.5q-14 16 -17 27q-6 23 -9 74q-2 25 -10 43q-11 26 -29 46.5t-41.5 34.5t-53.5 21t-65 7q-132 0 -206 -94q-57 -73 -57 -231v-1051h-339z" />
<glyph unicode="&#xe0;" horiz-adv-x="1188" d="M80 234q0 61 31.5 116t96 97t202.5 74t383 58v109q0 111 -62 158.5t-175 47.5q-56 0 -98 -13.5t-67.5 -37t-37.5 -53.5q-5 -11 -24 -85q-23 -90 -93 -90q-40 0 -64.5 26.5t-24.5 71.5q0 66 49 129.5t149.5 105t237.5 41.5q128 0 219 -39.5t134 -113.5q30 -51 30 -186 v-385q0 -82 5 -107q11 -43 38.5 -64.5t71.5 -21.5q46 0 110 22v-87q-83 -24 -149 -24q-71 0 -119.5 20t-79.5 58.5t-40 91.5q-120 -94 -217 -132t-196 -38q-138 0 -224 75t-86 176zM263 252q0 -39 22.5 -75.5t63.5 -57.5t87 -21q65 0 147 31t210 121v242q-232 -34 -287 -47 q-109 -25 -156 -55t-67 -64.5t-20 -73.5zM365 1334q0 34 20.5 55.5t52.5 21.5q64 0 159 -70l185 -136v-35l-286 60q-75 16 -103 41.5t-28 62.5z" />
<glyph unicode="&#xe1;" horiz-adv-x="1188" d="M80 234q0 61 31.5 116t96 97t202.5 74t383 58v109q0 111 -62 158.5t-175 47.5q-56 0 -98 -13.5t-67.5 -37t-37.5 -53.5q-5 -11 -24 -85q-23 -90 -93 -90q-40 0 -64.5 26.5t-24.5 71.5q0 66 49 129.5t149.5 105t237.5 41.5q128 0 219 -39.5t134 -113.5q30 -51 30 -186 v-385q0 -82 5 -107q11 -43 38.5 -64.5t71.5 -21.5q46 0 110 22v-87q-83 -24 -149 -24q-71 0 -119.5 20t-79.5 58.5t-40 91.5q-120 -94 -217 -132t-196 -38q-138 0 -224 75t-86 176zM263 252q0 -39 22.5 -75.5t63.5 -57.5t87 -21q65 0 147 31t210 121v242q-232 -34 -287 -47 q-109 -25 -156 -55t-67 -64.5t-20 -73.5zM386 1170v35l185 136q95 70 159 70q30 0 50.5 -21.5t20.5 -53.5q0 -39 -28 -64.5t-101 -41.5z" />
<glyph unicode="&#xe2;" horiz-adv-x="1188" d="M80 234q0 61 31.5 116t96 97t202.5 74t383 58v109q0 111 -62 158.5t-175 47.5q-56 0 -98 -13.5t-67.5 -37t-37.5 -53.5q-5 -11 -24 -85q-23 -90 -93 -90q-40 0 -64.5 26.5t-24.5 71.5q0 66 49 129.5t149.5 105t237.5 41.5q128 0 219 -39.5t134 -113.5q30 -51 30 -186 v-385q0 -82 5 -107q11 -43 38.5 -64.5t71.5 -21.5q46 0 110 22v-87q-83 -24 -149 -24q-71 0 -119.5 20t-79.5 58.5t-40 91.5q-120 -94 -217 -132t-196 -38q-138 0 -224 75t-86 176zM263 252q0 -39 22.5 -75.5t63.5 -57.5t87 -21q65 0 147 31t210 121v242q-232 -34 -287 -47 q-109 -25 -156 -55t-67 -64.5t-20 -73.5zM303 1213l290 191l291 -191l-27 -51l-264 93l-263 -93z" />
<glyph unicode="&#xe3;" horiz-adv-x="1188" d="M80 234q0 61 31.5 116t96 97t202.5 74t383 58v109q0 111 -62 158.5t-175 47.5q-56 0 -98 -13.5t-67.5 -37t-37.5 -53.5q-5 -11 -24 -85q-23 -90 -93 -90q-40 0 -64.5 26.5t-24.5 71.5q0 66 49 129.5t149.5 105t237.5 41.5q128 0 219 -39.5t134 -113.5q30 -51 30 -186 v-385q0 -82 5 -107q11 -43 38.5 -64.5t71.5 -21.5q46 0 110 22v-87q-83 -24 -149 -24q-71 0 -119.5 20t-79.5 58.5t-40 91.5q-120 -94 -217 -132t-196 -38q-138 0 -224 75t-86 176zM263 252q0 -39 22.5 -75.5t63.5 -57.5t87 -21q65 0 147 31t210 121v242q-232 -34 -287 -47 q-109 -25 -156 -55t-67 -64.5t-20 -73.5zM279 1214q19 63 68.5 101.5t108.5 38.5q60 0 194 -38q66 -18 101 -18q64 0 98 45l60 -18q-17 -66 -74.5 -110t-128.5 -44q-23 0 -42 4t-90 26q-109 34 -155 34q-44 0 -81 -41z" />
<glyph unicode="&#xe4;" horiz-adv-x="1188" d="M80 234q0 61 31.5 116t96 97t202.5 74t383 58v109q0 111 -62 158.5t-175 47.5q-56 0 -98 -13.5t-67.5 -37t-37.5 -53.5q-5 -11 -24 -85q-23 -90 -93 -90q-40 0 -64.5 26.5t-24.5 71.5q0 66 49 129.5t149.5 105t237.5 41.5q128 0 219 -39.5t134 -113.5q30 -51 30 -186 v-385q0 -82 5 -107q11 -43 38.5 -64.5t71.5 -21.5q46 0 110 22v-87q-83 -24 -149 -24q-71 0 -119.5 20t-79.5 58.5t-40 91.5q-120 -94 -217 -132t-196 -38q-138 0 -224 75t-86 176zM263 252q0 -39 22.5 -75.5t63.5 -57.5t87 -21q65 0 147 31t210 121v242q-232 -34 -287 -47 q-109 -25 -156 -55t-67 -64.5t-20 -73.5zM305 1255q0 51 35.5 87t86.5 36q50 0 86 -36t36 -87q0 -50 -36 -86t-86 -36t-86 36t-36 86zM639 1255q0 51 35.5 87t86.5 36q50 0 86 -36t36 -87q0 -50 -36 -86t-86 -36q-51 0 -86.5 36t-35.5 86z" />
<glyph unicode="&#xe5;" horiz-adv-x="1188" d="M80 234q0 61 31.5 116t96 97t202.5 74t383 58v109q0 111 -62 158.5t-175 47.5q-56 0 -98 -13.5t-67.5 -37t-37.5 -53.5q-5 -11 -24 -85q-23 -90 -93 -90q-40 0 -64.5 26.5t-24.5 71.5q0 66 49 129.5t149.5 105t237.5 41.5q128 0 219 -39.5t134 -113.5q30 -51 30 -186 v-385q0 -82 5 -107q11 -43 38.5 -64.5t71.5 -21.5q46 0 110 22v-87q-83 -24 -149 -24q-71 0 -119.5 20t-79.5 58.5t-40 91.5q-120 -94 -217 -132t-196 -38q-138 0 -224 75t-86 176zM263 252q0 -39 22.5 -75.5t63.5 -57.5t87 -21q65 0 147 31t210 121v242q-232 -34 -287 -47 q-109 -25 -156 -55t-67 -64.5t-20 -73.5zM405 1310q0 78 55 133.5t133 55.5q79 0 134 -55.5t55 -133.5q0 -79 -55.5 -134.5t-133.5 -55.5t-133 55.5t-55 134.5zM475 1310q0 -50 34.5 -85t83.5 -35t84 35t35 85q0 49 -35 84t-84 35t-83.5 -35t-34.5 -84z" />
<glyph unicode="&#xe6;" horiz-adv-x="1761" d="M86 230q0 65 31 119.5t99 98t212 77t370 54.5v83q0 91 -23 134.5t-78 70.5t-136 27q-65 0 -112 -19t-71.5 -50t-38.5 -96q-12 -53 -24 -73.5t-31 -31.5t-42 -11q-41 0 -65 25.5t-24 74.5q0 105 117 190.5t313 85.5q89 0 155 -18.5t116 -53.5q38 -26 70 -76 q148 148 337 148q188 0 301.5 -112.5t118.5 -306.5h-707q-4 -51 -4 -76q0 -121 47 -218.5t121.5 -146.5t161.5 -49q80 0 164 43.5t161 135.5l66 -52q-92 -120 -197 -175.5t-234 -55.5q-126 0 -223.5 55t-165.5 165q-94 -92 -256 -169q-108 -51 -218 -51q-140 0 -225.5 75 t-85.5 179zM269 255q0 -40 21.5 -77.5t64 -59.5t87.5 -22q61 0 156.5 38t199.5 116v240q-156 -17 -273.5 -43.5t-166.5 -56t-69 -63.5t-20 -72zM989 662h509q-8 105 -73.5 169t-160.5 64t-170.5 -61.5t-104.5 -171.5z" />
<glyph unicode="&#xe7;" horiz-adv-x="1065" d="M84 485q0 145 65.5 260.5t182 179.5t267.5 64q172 0 287 -84.5t115 -170.5q0 -46 -27 -71t-61 -25q-18 0 -35 9t-35 29q-8 9 -29 56q-27 58 -42 78q-31 40 -76.5 63t-101.5 23q-85 0 -157.5 -47t-115 -138.5t-42.5 -218.5q0 -197 105 -313q91 -100 217 -100 q58 0 117.5 19.5t112.5 57.5q39 27 127 123l64 -52q-188 -251 -451 -251q-205 0 -346 146t-141 363zM339 -295q0 22 14.5 37t37.5 15t38 -10.5t26 -39.5q15 -34 25 -43q23 -18 54 -18q40 0 68 30.5t28 79.5q0 51 -30 78t-93 27q-41 0 -98 -20l51 159h62l-26 -87q41 3 49 3 q56 0 104 -22q36 -16 56.5 -49.5t20.5 -79.5q0 -78 -51.5 -126.5t-138.5 -48.5t-150 43q-47 31 -47 72z" />
<glyph unicode="&#xe8;" horiz-adv-x="1065" d="M86 478q0 158 61 270t170.5 176.5t253.5 64.5q107 0 186 -33.5t134 -101t80 -154.5q14 -51 16 -132h-707q-3 -49 -3 -73q0 -126 44 -224.5t116.5 -145t164.5 -46.5q78 0 151 36.5t177 142.5l64 -52q-73 -87 -141.5 -138t-129.5 -71.5t-143 -20.5q-147 0 -250 60 q-118 69 -181 180t-63 262zM295 662h507q-15 92 -42.5 136t-78 70t-113.5 26t-118 -26t-91.5 -72t-63.5 -134zM324 1334q0 34 20.5 55.5t52.5 21.5q64 0 159 -70l185 -136v-35l-286 60q-75 16 -103 41.5t-28 62.5z" />
<glyph unicode="&#xe9;" horiz-adv-x="1065" d="M86 478q0 158 61 270t170.5 176.5t253.5 64.5q107 0 186 -33.5t134 -101t80 -154.5q14 -51 16 -132h-707q-3 -49 -3 -73q0 -126 44 -224.5t116.5 -145t164.5 -46.5q78 0 151 36.5t177 142.5l64 -52q-73 -87 -141.5 -138t-129.5 -71.5t-143 -20.5q-147 0 -250 60 q-118 69 -181 180t-63 262zM295 662h507q-15 92 -42.5 136t-78 70t-113.5 26t-118 -26t-91.5 -72t-63.5 -134zM355 1170v35l185 136q95 70 159 70q30 0 50.5 -21.5t20.5 -53.5q0 -39 -28 -64.5t-101 -41.5z" />
<glyph unicode="&#xea;" horiz-adv-x="1065" d="M86 478q0 158 61 270t170.5 176.5t253.5 64.5q107 0 186 -33.5t134 -101t80 -154.5q14 -51 16 -132h-707q-3 -49 -3 -73q0 -126 44 -224.5t116.5 -145t164.5 -46.5q78 0 151 36.5t177 142.5l64 -52q-73 -87 -141.5 -138t-129.5 -71.5t-143 -20.5q-147 0 -250 60 q-118 69 -181 180t-63 262zM295 662h507q-15 92 -42.5 136t-78 70t-113.5 26t-118 -26t-91.5 -72t-63.5 -134zM322 1213l290 191l291 -191l-27 -51l-264 93l-263 -93z" />
<glyph unicode="&#xeb;" horiz-adv-x="1065" d="M86 478q0 158 61 270t170.5 176.5t253.5 64.5q107 0 186 -33.5t134 -101t80 -154.5q14 -51 16 -132h-707q-3 -49 -3 -73q0 -126 44 -224.5t116.5 -145t164.5 -46.5q78 0 151 36.5t177 142.5l64 -52q-73 -87 -141.5 -138t-129.5 -71.5t-143 -20.5q-147 0 -250 60 q-118 69 -181 180t-63 262zM274 1255q0 51 35.5 87t86.5 36q50 0 86 -36t36 -87q0 -50 -36 -86t-86 -36t-86 36t-36 86zM295 662h507q-15 92 -42.5 136t-78 70t-113.5 26t-118 -26t-91.5 -72t-63.5 -134zM608 1255q0 51 35.5 87t86.5 36q50 0 86 -36t36 -87q0 -50 -36 -86 t-86 -36q-51 0 -86.5 36t-35.5 86z" />
<glyph unicode="&#xec;" horiz-adv-x="614" d="M59 1334q0 34 20.5 55.5t52.5 21.5q64 0 159 -70l185 -136v-35l-286 60q-75 16 -103 41.5t-28 62.5zM61 0v84h41q67 0 90 12t32.5 34t9.5 103v588h-173v83q83 10 139.5 28t128.5 57h73v-756q0 -77 5 -93q9 -30 36 -44q21 -12 83 -12h47v-84h-512z" />
<glyph unicode="&#xed;" horiz-adv-x="614" d="M61 0v84h41q67 0 90 12t32.5 34t9.5 103v588h-173v83q83 10 139.5 28t128.5 57h73v-756q0 -77 5 -93q9 -30 36 -44q21 -12 83 -12h47v-84h-512zM99 1170v35l185 136q95 70 159 70q30 0 50.5 -21.5t20.5 -53.5q0 -39 -28 -64.5t-101 -41.5z" />
<glyph unicode="&#xee;" horiz-adv-x="614" d="M17 1213l290 191l291 -191l-27 -51l-264 93l-263 -93zM61 0v84h41q67 0 90 12t32.5 34t9.5 103v588h-173v83q83 10 139.5 28t128.5 57h73v-756q0 -77 5 -93q9 -30 36 -44q21 -12 83 -12h47v-84h-512z" />
<glyph unicode="&#xef;" horiz-adv-x="614" d="M18 1255q0 51 35.5 87t86.5 36q50 0 86 -36t36 -87q0 -50 -36 -86t-86 -36t-86 36t-36 86zM61 0v84h41q67 0 90 12t32.5 34t9.5 103v588h-173v83q83 10 139.5 28t128.5 57h73v-756q0 -77 5 -93q9 -30 36 -44q21 -12 83 -12h47v-84h-512zM352 1255q0 51 35.5 87t86.5 36 q50 0 86 -36t36 -87q0 -50 -36 -86t-86 -36q-51 0 -86.5 36t-35.5 86z" />
<glyph unicode="&#xf0;" horiz-adv-x="1147" d="M82 483q0 148 61.5 264.5t168.5 179t242 62.5q66 0 125.5 -16.5t97 -43t73.5 -77.5q-40 197 -201 415l-296 -80l-23 80l260 70q-24 31 -44 51l-81 79h133q52 -47 99 -103l298 80l22 -80l-255 -70q91 -102 165 -235.5t105.5 -251.5t31.5 -243q0 -183 -67.5 -317 t-177 -202.5t-262.5 -68.5q-228 0 -351.5 150t-123.5 357zM278 473q0 -196 89 -310q74 -95 201 -95q87 0 153 44.5t107.5 140t41.5 228.5q0 132 -40 227.5t-106 140t-151 44.5q-78 0 -148 -48t-108.5 -140.5t-38.5 -231.5z" />
<glyph unicode="&#xf1;" horiz-adv-x="1352" d="M75 0v84h25q74 0 101 12.5t38 44.5q6 16 6 110v570h-170v84q89 10 133 24t127 60h72v-190q132 111 225.5 150.5t189.5 39.5q82 0 145 -27.5t102.5 -74.5t52.5 -107q8 -37 8 -112v-440q0 -79 11.5 -101.5t36.5 -32.5t123 -10v-84h-515v84h28q72 0 98 13t37.5 38t11.5 102 v368q0 114 -18.5 158t-63 71.5t-112.5 27.5q-81 0 -173 -41.5t-178 -122.5v-461q0 -78 11.5 -104t37.5 -39q18 -10 96 -10h29v-84h-515zM361 1214q19 63 68.5 101.5t108.5 38.5q60 0 194 -38q66 -18 101 -18q64 0 98 45l60 -18q-17 -66 -74.5 -110t-128.5 -44q-23 0 -42 4 t-90 26q-109 34 -155 34q-44 0 -81 -41z" />
<glyph unicode="&#xf2;" horiz-adv-x="1147" d="M82 482q0 149 63 264.5t176.5 179t257.5 63.5q147 0 254.5 -61t169.5 -178t62 -267t-63.5 -267t-173 -178.5t-261.5 -61.5q-242 0 -363.5 151t-121.5 355zM278 476q0 -206 85 -314q77 -96 209 -96q85 0 151.5 45t107.5 143.5t41 231.5q0 130 -44 233q-34 82 -102.5 127.5 t-154.5 45.5q-114 0 -193 -90q-100 -112 -100 -326zM365 1334q0 34 20.5 55.5t52.5 21.5q64 0 159 -70l185 -136v-35l-286 60q-75 16 -103 41.5t-28 62.5z" />
<glyph unicode="&#xf3;" horiz-adv-x="1147" d="M82 482q0 149 63 264.5t176.5 179t257.5 63.5q147 0 254.5 -61t169.5 -178t62 -267t-63.5 -267t-173 -178.5t-261.5 -61.5q-242 0 -363.5 151t-121.5 355zM278 476q0 -206 85 -314q77 -96 209 -96q85 0 151.5 45t107.5 143.5t41 231.5q0 130 -44 233q-34 82 -102.5 127.5 t-154.5 45.5q-114 0 -193 -90q-100 -112 -100 -326zM410 1170v35l185 136q95 70 159 70q30 0 50.5 -21.5t20.5 -53.5q0 -39 -28 -64.5t-101 -41.5z" />
<glyph unicode="&#xf4;" horiz-adv-x="1147" d="M82 482q0 149 63 264.5t176.5 179t257.5 63.5q147 0 254.5 -61t169.5 -178t62 -267t-63.5 -267t-173 -178.5t-261.5 -61.5q-242 0 -363.5 151t-121.5 355zM278 476q0 -206 85 -314q77 -96 209 -96q85 0 151.5 45t107.5 143.5t41 231.5q0 130 -44 233q-34 82 -102.5 127.5 t-154.5 45.5q-114 0 -193 -90q-100 -112 -100 -326zM283 1213l290 191l291 -191l-27 -51l-264 93l-263 -93z" />
<glyph unicode="&#xf5;" horiz-adv-x="1147" d="M82 482q0 149 63 264.5t176.5 179t257.5 63.5q147 0 254.5 -61t169.5 -178t62 -267t-63.5 -267t-173 -178.5t-261.5 -61.5q-242 0 -363.5 151t-121.5 355zM259 1214q19 63 68.5 101.5t108.5 38.5q60 0 194 -38q66 -18 101 -18q64 0 98 45l60 -18q-17 -66 -74.5 -110 t-128.5 -44q-23 0 -42 4t-90 26q-109 34 -155 34q-44 0 -81 -41zM278 476q0 -206 85 -314q77 -96 209 -96q85 0 151.5 45t107.5 143.5t41 231.5q0 130 -44 233q-34 82 -102.5 127.5t-154.5 45.5q-114 0 -193 -90q-100 -112 -100 -326z" />
<glyph unicode="&#xf6;" horiz-adv-x="1147" d="M82 482q0 149 63 264.5t176.5 179t257.5 63.5q147 0 254.5 -61t169.5 -178t62 -267t-63.5 -267t-173 -178.5t-261.5 -61.5q-242 0 -363.5 151t-121.5 355zM278 476q0 -206 85 -314q77 -96 209 -96q85 0 151.5 45t107.5 143.5t41 231.5q0 130 -44 233q-34 82 -102.5 127.5 t-154.5 45.5q-114 0 -193 -90q-100 -112 -100 -326zM285 1255q0 51 35.5 87t86.5 36q50 0 86 -36t36 -87q0 -50 -36 -86t-86 -36t-86 36t-36 86zM619 1255q0 51 35.5 87t86.5 36q50 0 86 -36t36 -87q0 -50 -36 -86t-86 -36q-51 0 -86.5 36t-35.5 86z" />
<glyph unicode="&#xf7;" horiz-adv-x="1124" d="M75 636v123h975v-123h-975zM460 369q0 41 29.5 69.5t72.5 28.5q41 0 70 -28.5t29 -69.5q0 -43 -29.5 -73t-71.5 -30q-41 0 -70.5 30t-29.5 73zM462 1030q0 41 29.5 69.5t72.5 28.5q41 0 70 -28.5t29 -69.5q0 -42 -30 -72t-71 -30t-70.5 30t-29.5 72z" />
<glyph unicode="&#xf8;" horiz-adv-x="1147" d="M82 -24l126 146q-126 153 -126 359q0 150 63 265.5t176.5 179t258.5 63.5q179 0 300 -91l79 91h106l-126 -146q59 -65 92.5 -159.5t33.5 -200.5q0 -150 -63.5 -267.5t-173 -178.5t-263.5 -61q-182 0 -299 90l-77 -90h-107zM278 474q0 -128 38 -227l471 544 q-36 46 -94 73.5t-120 27.5q-119 0 -198 -93q-97 -113 -97 -325zM357 170q78 -104 215 -104q85 0 152 45t107.5 143.5t40.5 231.5q0 131 -43 230z" />
<glyph unicode="&#xf9;" horiz-adv-x="1393" d="M20 881v84l379 15v-644q0 -85 23.5 -135t72 -77.5t113.5 -27.5q80 0 181.5 43t202.5 128v466q0 74 -11 97t-39 37t-88 14h-73v84l379 15v-746q0 -72 12 -99.5t35.5 -39t94.5 -11.5h31v-84l-332 -17v185q-137 -109 -239 -150.5t-207 -41.5q-78 0 -135.5 21t-101 63 t-66.5 101t-23 126v455q0 61 -11 85.5t-36.5 39t-69.5 14.5h-92zM488 1334q0 34 20.5 55.5t52.5 21.5q64 0 159 -70l185 -136v-35l-286 60q-75 16 -103 41.5t-28 62.5z" />
<glyph unicode="&#xfa;" horiz-adv-x="1393" d="M20 881v84l379 15v-644q0 -85 23.5 -135t72 -77.5t113.5 -27.5q80 0 181.5 43t202.5 128v466q0 74 -11 97t-39 37t-88 14h-73v84l379 15v-746q0 -72 12 -99.5t35.5 -39t94.5 -11.5h31v-84l-332 -17v185q-137 -109 -239 -150.5t-207 -41.5q-78 0 -135.5 21t-101 63 t-66.5 101t-23 126v455q0 61 -11 85.5t-36.5 39t-69.5 14.5h-92zM489 1170v35l185 136q95 70 159 70q30 0 50.5 -21.5t20.5 -53.5q0 -39 -28 -64.5t-101 -41.5z" />
<glyph unicode="&#xfb;" horiz-adv-x="1393" d="M20 881v84l379 15v-644q0 -85 23.5 -135t72 -77.5t113.5 -27.5q80 0 181.5 43t202.5 128v466q0 74 -11 97t-39 37t-88 14h-73v84l379 15v-746q0 -72 12 -99.5t35.5 -39t94.5 -11.5h31v-84l-332 -17v185q-137 -109 -239 -150.5t-207 -41.5q-78 0 -135.5 21t-101 63 t-66.5 101t-23 126v455q0 61 -11 85.5t-36.5 39t-69.5 14.5h-92zM406 1213l290 191l291 -191l-27 -51l-264 93l-263 -93z" />
<glyph unicode="&#xfc;" horiz-adv-x="1393" d="M20 881v84l379 15v-644q0 -85 23.5 -135t72 -77.5t113.5 -27.5q80 0 181.5 43t202.5 128v466q0 74 -11 97t-39 37t-88 14h-73v84l379 15v-746q0 -72 12 -99.5t35.5 -39t94.5 -11.5h31v-84l-332 -17v185q-137 -109 -239 -150.5t-207 -41.5q-78 0 -135.5 21t-101 63 t-66.5 101t-23 126v455q0 61 -11 85.5t-36.5 39t-69.5 14.5h-92zM408 1255q0 51 35.5 87t86.5 36q50 0 86 -36t36 -87q0 -50 -36 -86t-86 -36t-86 36t-36 86zM742 1255q0 51 35.5 87t86.5 36q50 0 86 -36t36 -87q0 -50 -36 -86t-86 -36q-51 0 -86.5 36t-35.5 86z" />
<glyph unicode="&#xfd;" horiz-adv-x="1106" d="M-35 -314q0 37 23 61.5t54 24.5q24 0 45 -10q13 -5 54 -42q50 -44 70.5 -54t40.5 -10q41 0 81 28t68 79q40 73 66 137l41 100l-330 739q-35 78 -59 105t-48 33q-13 4 -82 4v84h486v-84h-40q-57 0 -68 -3q-13 -4 -22 -16.5t-9 -31.5q0 -27 27 -91l232 -545l215 521 q38 92 38 122q0 23 -17 33.5t-77 10.5h-47v84h409v-84h-24q-60 0 -78 -8t-35 -32.5t-54 -111.5l-367 -855q-40 -92 -89 -170.5t-123 -121.5t-163 -43q-103 0 -165 47q-53 40 -53 100zM385 1170v35l185 136q95 70 159 70q30 0 50.5 -21.5t20.5 -53.5q0 -39 -28 -64.5 t-101 -41.5z" />
<glyph unicode="&#xfe;" d="M64 -362h45q69 0 89.5 10.5t30.5 32.5q6 17 6 104v1514h-171v83q75 0 133 18.5t127 66.5h79v-645q125 99 208 133t166 34q171 0 291.5 -134t120.5 -349q0 -238 -137 -390q-125 -140 -322 -140q-98 0 -184 37q-62 26 -143 93v-329q0 -74 4 -87q5 -19 20 -32t38 -17 q17 -3 114 -3v-84h-515v84zM403 375q0 -68 8 -101q12 -51 46.5 -92t94 -70t124.5 -29q130 0 225.5 98t95.5 297q0 186 -79 287.5t-187 101.5q-70 0 -152 -37t-176 -111v-344z" />
<glyph unicode="&#xff;" horiz-adv-x="1106" d="M-35 -314q0 37 23 61.5t54 24.5q24 0 45 -10q13 -5 54 -42q50 -44 70.5 -54t40.5 -10q41 0 81 28t68 79q40 73 66 137l41 100l-330 739q-35 78 -59 105t-48 33q-13 4 -82 4v84h486v-84h-40q-57 0 -68 -3q-13 -4 -22 -16.5t-9 -31.5q0 -27 27 -91l232 -545l215 521 q38 92 38 122q0 23 -17 33.5t-77 10.5h-47v84h409v-84h-24q-60 0 -78 -8t-35 -32.5t-54 -111.5l-367 -855q-40 -92 -89 -170.5t-123 -121.5t-163 -43q-103 0 -165 47q-53 40 -53 100zM264 1255q0 51 35.5 87t86.5 36q50 0 86 -36t36 -87q0 -50 -36 -86t-86 -36t-86 36 t-36 86zM598 1255q0 51 35.5 87t86.5 36q50 0 86 -36t36 -87q0 -50 -36 -86t-86 -36q-51 0 -86.5 36t-35.5 86z" />
<glyph unicode="&#x152;" horiz-adv-x="2539" d="M115 690q0 213 92 378.5t253 258t364 92.5q178 0 316 -74q97 -52 182 -155v205h958l130 -367l-87 -33q-34 90 -72.5 141.5t-93.5 87.5t-110.5 48t-199.5 12h-338v-511h167q93 0 140.5 31.5t66.5 78.5q14 35 14 122v23h97v-612h-97v53q0 70 -11 101t-39 58.5t-60.5 37.5 t-110.5 10h-167v-456q0 -70 6 -85t21.5 -22t81.5 -7h209q175 0 273.5 42t174.5 129q59 68 112 192l91 -32l-155 -437h-1001v220q-50 -69 -98 -107q-84 -68 -182.5 -102.5t-225.5 -34.5q-207 0 -355 86q-162 95 -254 258.5t-92 369.5zM332 695q0 -194 64.5 -333t176 -210 t249.5 -71q218 0 359 173.5t141 445.5q0 282 -153 464q-128 153 -341 153q-211 0 -346 -159q-150 -177 -150 -463z" />
<glyph unicode="&#x153;" horiz-adv-x="1843" d="M84 480q0 232 135.5 370.5t358.5 138.5q104 0 183 -28.5t137 -81.5q34 -30 69 -87q139 197 378 197q133 0 231 -57.5t150 -168.5q38 -82 39 -191h-707q-5 -56 -5 -84q0 -115 46.5 -211.5t121 -145.5t155.5 -49q170 0 334 179l63 -50q-168 -235 -435 -235q-88 0 -152.5 23 t-119.5 70.5t-99 122.5q-49 -79 -104.5 -123t-132 -68.5t-167.5 -24.5q-214 0 -346.5 137.5t-132.5 366.5zM278 476q0 -135 39 -227t103.5 -135.5t151.5 -43.5q129 0 215 108t86 306q0 216 -101 325q-79 85 -196 85q-80 0 -148.5 -46.5t-109 -141t-40.5 -230.5zM1072 665 h508q-10 104 -77 168t-160 64q-104 0 -183 -76q-56 -54 -88 -156z" />
<glyph unicode="&#x178;" horiz-adv-x="1311" d="M5 1310v85h522v-85h-59q-54 0 -69.5 -10t-15.5 -33q0 -20 19 -54q5 -8 13 -23l272 -504l301 523q18 32 21.5 41.5t3.5 19.5q0 14 -7.5 23.5t-23.5 14.5q-10 2 -56 2h-52v85h431v-85q-57 1 -84.5 -7t-45 -24.5t-49.5 -69.5l-378 -630v-351q0 -77 12.5 -100t39.5 -33.5 t126 -10.5v-84h-545v84h42q67 0 89.5 12t35.5 39q9 19 9 93v314l-369 656q-44 79 -73.5 94.5t-109.5 17.5zM366 1586q0 51 35.5 87t86.5 36q50 0 86 -36t36 -87q0 -50 -36 -86t-86 -36t-86 36t-36 86zM700 1586q0 51 35.5 87t86.5 36q50 0 86 -36t36 -87q0 -50 -36 -86 t-86 -36q-51 0 -86.5 36t-35.5 86z" />
<glyph unicode="&#x2c6;" horiz-adv-x="860" d="M139 1213l290 191l291 -191l-27 -51l-264 93l-263 -93z" />
<glyph unicode="&#x2dc;" horiz-adv-x="901" d="M136 1214q19 63 68.5 101.5t108.5 38.5q60 0 194 -38q66 -18 101 -18q64 0 98 45l60 -18q-17 -66 -74.5 -110t-128.5 -44q-23 0 -42 4t-90 26q-109 34 -155 34q-44 0 -81 -41z" />
<glyph unicode="&#x2000;" horiz-adv-x="915" />
<glyph unicode="&#x2001;" horiz-adv-x="1831" />
<glyph unicode="&#x2002;" horiz-adv-x="915" />
<glyph unicode="&#x2003;" horiz-adv-x="1831" />
<glyph unicode="&#x2004;" horiz-adv-x="610" />
<glyph unicode="&#x2005;" horiz-adv-x="457" />
<glyph unicode="&#x2006;" horiz-adv-x="305" />
<glyph unicode="&#x2007;" horiz-adv-x="305" />
<glyph unicode="&#x2008;" horiz-adv-x="228" />
<glyph unicode="&#x2009;" horiz-adv-x="366" />
<glyph unicode="&#x200a;" horiz-adv-x="101" />
<glyph unicode="&#x2010;" horiz-adv-x="819" d="M112 447v124h594v-124h-594z" />
<glyph unicode="&#x2011;" horiz-adv-x="819" d="M112 447v124h594v-124h-594z" />
<glyph unicode="&#x2012;" horiz-adv-x="819" d="M112 447v124h594v-124h-594z" />
<glyph unicode="&#x2013;" horiz-adv-x="1024" d="M-12 475v117h1048v-117h-1048z" />
<glyph unicode="&#x2014;" horiz-adv-x="2048" d="M-12 475v117h2072v-117h-2072z" />
<glyph unicode="&#x2018;" horiz-adv-x="451" d="M170 1073q0 56 23 117.5t67 114t174 162.5l54 -66q-205 -167 -205 -279q0 -13 2 -32q18 8 34 11.5t30 3.5q47 0 76.5 -31t29.5 -79q0 -47 -35.5 -82t-84.5 -35q-67 0 -116 54.5t-49 140.5z" />
<glyph unicode="&#x2019;" horiz-adv-x="451" d="M167 944q205 167 205 279q0 13 -2 32q-17 -7 -33 -11t-30 -4q-48 0 -77 31t-29 79q0 47 35 82t84 35q68 0 116.5 -54.5t48.5 -140.5q0 -56 -23 -117.5t-67 -114t-174 -162.5z" />
<glyph unicode="&#x201a;" horiz-adv-x="451" d="M167 -296q205 167 205 279q0 13 -2 32q-17 -7 -33 -11t-30 -4q-48 0 -77 31t-29 79q0 47 35 82t84 35q68 0 116.5 -54.5t48.5 -140.5q0 -56 -23 -117.5t-67 -114t-174 -162.5z" />
<glyph unicode="&#x201c;" horiz-adv-x="819" d="M74 1073q0 56 23 117.5t67 114t174 162.5l54 -66q-205 -167 -205 -279q0 -13 2 -32q18 8 34 11.5t30 3.5q47 0 76.5 -31t29.5 -79q0 -47 -35.5 -82t-84.5 -35q-67 0 -116 54.5t-49 140.5zM431 1073q0 56 23 117.5t67 114t174 162.5l54 -66q-205 -167 -205 -279 q0 -13 2 -32q18 8 34 11.5t30 3.5q47 0 76 -31t29 -79q0 -47 -35 -82t-84 -35q-67 0 -116 54.5t-49 140.5z" />
<glyph unicode="&#x201d;" horiz-adv-x="819" d="M70 944q205 167 205 279q0 13 -2 32q-17 -7 -33 -11t-30 -4q-48 0 -77 31t-29 79q0 47 35 82t84 35q68 0 116.5 -54.5t48.5 -140.5q0 -56 -23 -117.5t-67 -114t-174 -162.5zM427 944q205 167 205 279q0 13 -2 32q-17 -7 -33 -11t-31 -4q-47 0 -76 31t-29 79q0 47 35 82 t84 35q68 0 116.5 -54.5t48.5 -140.5q0 -56 -23 -117.5t-67 -114t-174 -162.5z" />
<glyph unicode="&#x201e;" horiz-adv-x="819" d="M70 -296q205 167 205 279q0 13 -2 32q-17 -7 -33 -11t-30 -4q-48 0 -77 31t-29 79q0 47 35 82t84 35q68 0 116.5 -54.5t48.5 -140.5q0 -56 -23 -117.5t-67 -114t-174 -162.5zM427 -296q205 167 205 279q0 13 -2 32q-17 -7 -33 -11t-31 -4q-47 0 -76 31t-29 79q0 47 35 82 t84 35q68 0 116.5 -54.5t48.5 -140.5q0 -56 -23 -117.5t-67 -114t-174 -162.5z" />
<glyph unicode="&#x2022;" horiz-adv-x="942" d="M182 704q0 125 84.5 212t204.5 87t205 -86.5t85 -211.5q0 -123 -85 -209t-204 -86q-120 0 -205 86t-85 208z" />
<glyph unicode="&#x2026;" horiz-adv-x="2048" d="M216 108q0 52 36.5 88.5t88.5 36.5q53 0 89.5 -36.5t36.5 -88.5t-37 -88.5t-89 -36.5q-51 0 -88 36.5t-37 88.5zM899 109q0 52 38 89.5t87 37.5q52 0 89 -37t37 -89q0 -53 -37 -90t-89 -37t-88.5 37t-36.5 89zM1581 109q0 52 38.5 89.5t87.5 37.5q52 0 88.5 -37t36.5 -89 q0 -53 -37 -90t-88 -37q-52 0 -89 37t-37 89z" />
<glyph unicode="&#x202f;" horiz-adv-x="366" />
<glyph unicode="&#x2039;" horiz-adv-x="491" d="M90 496l185 355l76 -36l-107 -319l107 -311l-76 -38z" />
<glyph unicode="&#x203a;" horiz-adv-x="491" d="M141 183l107 319l-107 311l76 38l185 -349l-185 -355z" />
<glyph unicode="&#x205f;" horiz-adv-x="457" />
<glyph unicode="&#x20ac;" d="M5 555l14 94h115q-2 18 -2 45q0 33 2 51h-129l14 95h123q42 253 197.5 416t359.5 163q142 0 252 -96l18 72h72l110 -424l-94 -25q-73 217 -157 292t-181 75q-134 0 -232.5 -124t-131.5 -349h565l-14 -95h-557v-36q0 -45 2 -60h542l-14 -94h-518q38 -217 141.5 -337 t241.5 -120q190 0 356 258l80 -53q-104 -168 -220 -248t-267 -80q-203 0 -356 155.5t-195 424.5h-137z" />
<glyph unicode="&#x2122;" horiz-adv-x="2007" d="M-10 1155l21 201h728l22 -201h-34q-10 73 -53 107t-141 34h-75v-579q0 -65 8.5 -86.5t27.5 -32.5t70 -13v-36h-374v36q53 5 69 15t23.5 30.5t7.5 85.5v580h-76q-94 0 -134.5 -31t-55.5 -110h-34zM830 549v36q57 0 76 10.5t28 31.5t9 89v466q0 74 -8 95t-29 31.5t-76 10.5 v37h286l273 -572l265 572h279v-37q-57 -1 -75 -11.5t-27 -32t-9 -91.5v-468q0 -69 7.5 -88t27.5 -29.5t76 -13.5v-36h-398v36q59 1 79.5 12t30 32t9.5 86v492l-307 -658h-32l-308 649v-482q0 -66 7 -84q9 -25 28 -36t58 -11h36v-36h-306z" />
<glyph unicode="&#x25fc;" horiz-adv-x="965" d="M0 0v965h965v-965h-965z" />
<glyph unicode="&#xfb01;" d="M74 0v84h32q68 0 84 8q33 16 47 47q11 23 11 87v631h-174v108h174v110q0 84 11 129q16 70 69.5 131t137.5 96.5t196 35.5q141 0 228.5 -60t87.5 -123q0 -40 -23 -63.5t-61 -23.5q-21 0 -40 7.5t-39 24.5q-12 10 -37 45q-24 35 -34 44q-28 27 -61 41t-70 14q-48 0 -92 -24 t-68 -62t-31.5 -91t-7.5 -91v-140h477q43 0 60 6q12 4 22 18h74v-755q0 -77 9 -97q12 -27 36 -40t89 -13h39v-84h-513v84h40q63 0 85 11t35 38t13 83v641h-466v-641q0 -58 11.5 -83t35 -37t79.5 -12h48v-84h-514z" />
<glyph unicode="&#xfb02;" d="M75 0v84h39q62 0 86.5 13t36.5 41.5t12 102.5v624h-174v100h174v125q0 120 46 199.5t139 128.5t214 49q38 0 111 -9q65 -8 91 -8q49 0 125 17h74v-1246q0 -62 7 -81.5t22.5 -33.5t34 -18t106.5 -4v-84h-512v84h36q65 0 89 13t36.5 41t12.5 103v624h-466v-644 q0 -67 11.5 -90t36 -35t89.5 -12h37v-84h-514zM415 965h466v320q-29 -10 -48 -10q-16 0 -32 7.5t-61 41.5q-66 50 -133 50q-81 0 -136.5 -63t-55.5 -187v-159z" />
</font>
</defs>
</svg>
